{
	"asset":{
		"generator":"Khronos glTF Blender I/O v4.1.63",
		"version":"2.0"
	},
	"scene":0,
	"scenes":[
		{
			"name":"Scene",
			"nodes":[
				0,
				1,
				2,
				3,
				4,
				5
			]
		}
	],
	"nodes":[
		{
			"mesh":0,
			"name":"ICO\u7403.002",
			"scale":[
				12.919543266296387,
				8,
				8
			],
			"translation":[
				24.73725128173828,
				0,
				-24.83127212524414
			]
		},
		{
			"mesh":1,
			"name":"ICO\u7403.003",
			"scale":[
				11.636059761047363,
				8,
				8
			],
			"translation":[
				26.418743133544922,
				0,
				23.889480590820312
			]
		},
		{
			"mesh":2,
			"name":"ICO\u7403",
			"scale":[
				9.143973350524902,
				9.143973350524902,
				9.143973350524902
			],
			"translation":[
				28.988048553466797,
				-0.13263320922851562,
				22.423479080200195
			]
		},
		{
			"mesh":3,
			"name":"ICO\u7403.006",
			"scale":[
				9.143973350524902,
				9.143973350524902,
				9.143973350524902
			],
			"translation":[
				28.988048553466797,
				-0.13263320922851562,
				-23.921489715576172
			]
		},
		{
			"mesh":4,
			"name":"ICO\u7403.001",
			"scale":[
				9.143973350524902,
				9.143973350524902,
				9.143973350524902
			],
			"translation":[
				-31.60441780090332,
				-0.13263320922851562,
				-22.20279312133789
			]
		},
		{
			"mesh":5,
			"name":"ICO\u7403.004",
			"scale":[
				9.143973350524902,
				9.143973350524902,
				9.143973350524902
			],
			"translation":[
				-29.198883056640625,
				-0.13263320922851562,
				24.308149337768555
			]
		}
	],
	"meshes":[
		{
			"name":"ICO\u7403.002",
			"primitives":[
				{
					"attributes":{
						"POSITION":0,
						"NORMAL":1,
						"TEXCOORD_0":2
					},
					"indices":3
				}
			]
		},
		{
			"name":"ICO\u7403.005",
			"primitives":[
				{
					"attributes":{
						"POSITION":4,
						"NORMAL":5,
						"TEXCOORD_0":6
					},
					"indices":7
				}
			]
		},
		{
			"name":"ICO\u7403",
			"primitives":[
				{
					"attributes":{
						"POSITION":8,
						"NORMAL":9,
						"TEXCOORD_0":10
					},
					"indices":11
				}
			]
		},
		{
			"name":"ICO\u7403.008",
			"primitives":[
				{
					"attributes":{
						"POSITION":12,
						"NORMAL":13,
						"TEXCOORD_0":14
					},
					"indices":11
				}
			]
		},
		{
			"name":"ICO\u7403.009",
			"primitives":[
				{
					"attributes":{
						"POSITION":15,
						"NORMAL":16,
						"TEXCOORD_0":17
					},
					"indices":11
				}
			]
		},
		{
			"name":"ICO\u7403.010",
			"primitives":[
				{
					"attributes":{
						"POSITION":18,
						"NORMAL":19,
						"TEXCOORD_0":20
					},
					"indices":11
				}
			]
		}
	],
	"accessors":[
		{
			"bufferView":0,
			"componentType":5126,
			"count":14021,
			"max":[
				0.308631956577301,
				1.0186749696731567,
				0.9941997528076172
			],
			"min":[
				-5.175955772399902,
				-1.109012484550476,
				-1.0790905952453613
			],
			"type":"VEC3"
		},
		{
			"bufferView":1,
			"componentType":5126,
			"count":14021,
			"type":"VEC3"
		},
		{
			"bufferView":2,
			"componentType":5126,
			"count":14021,
			"type":"VEC2"
		},
		{
			"bufferView":3,
			"componentType":5123,
			"count":33966,
			"type":"SCALAR"
		},
		{
			"bufferView":4,
			"componentType":5126,
			"count":8461,
			"max":[
				0.5902714729309082,
				1.0186749696731567,
				0.9942009449005127
			],
			"min":[
				-4.639573097229004,
				-1.109012484550476,
				-1.0053980350494385
			],
			"type":"VEC3"
		},
		{
			"bufferView":5,
			"componentType":5126,
			"count":8461,
			"type":"VEC3"
		},
		{
			"bufferView":6,
			"componentType":5126,
			"count":8461,
			"type":"VEC2"
		},
		{
			"bufferView":7,
			"componentType":5123,
			"count":26664,
			"type":"SCALAR"
		},
		{
			"bufferView":8,
			"componentType":5126,
			"count":15360,
			"max":[
				1.0923632383346558,
				0.8881399035453796,
				0.8548733592033386
			],
			"min":[
				-1.0543203353881836,
				-0.8933994770050049,
				-1.0790891647338867
			],
			"type":"VEC3"
		},
		{
			"bufferView":9,
			"componentType":5126,
			"count":15360,
			"type":"VEC3"
		},
		{
			"bufferView":10,
			"componentType":5126,
			"count":15360,
			"type":"VEC2"
		},
		{
			"bufferView":11,
			"componentType":5123,
			"count":23040,
			"type":"SCALAR"
		},
		{
			"bufferView":12,
			"componentType":5126,
			"count":15360,
			"max":[
				1.0923632383346558,
				0.8881399035453796,
				0.8548733592033386
			],
			"min":[
				-1.0543203353881836,
				-0.8933994770050049,
				-1.0790891647338867
			],
			"type":"VEC3"
		},
		{
			"bufferView":13,
			"componentType":5126,
			"count":15360,
			"type":"VEC3"
		},
		{
			"bufferView":14,
			"componentType":5126,
			"count":15360,
			"type":"VEC2"
		},
		{
			"bufferView":15,
			"componentType":5126,
			"count":15360,
			"max":[
				1.0923632383346558,
				0.8881399035453796,
				0.8548733592033386
			],
			"min":[
				-1.0543203353881836,
				-0.8933994770050049,
				-1.0790891647338867
			],
			"type":"VEC3"
		},
		{
			"bufferView":16,
			"componentType":5126,
			"count":15360,
			"type":"VEC3"
		},
		{
			"bufferView":17,
			"componentType":5126,
			"count":15360,
			"type":"VEC2"
		},
		{
			"bufferView":18,
			"componentType":5126,
			"count":15360,
			"max":[
				1.0923632383346558,
				0.8881399035453796,
				0.8548733592033386
			],
			"min":[
				-1.0543203353881836,
				-0.8933994770050049,
				-1.0790891647338867
			],
			"type":"VEC3"
		},
		{
			"bufferView":19,
			"componentType":5126,
			"count":15360,
			"type":"VEC3"
		},
		{
			"bufferView":20,
			"componentType":5126,
			"count":15360,
			"type":"VEC2"
		}
	],
	"bufferViews":[
		{
			"buffer":0,
			"byteLength":168252,
			"byteOffset":0,
			"target":34962
		},
		{
			"buffer":0,
			"byteLength":168252,
			"byteOffset":168252,
			"target":34962
		},
		{
			"buffer":0,
			"byteLength":112168,
			"byteOffset":336504,
			"target":34962
		},
		{
			"buffer":0,
			"byteLength":67932,
			"byteOffset":448672,
			"target":34963
		},
		{
			"buffer":0,
			"byteLength":101532,
			"byteOffset":516604,
			"target":34962
		},
		{
			"buffer":0,
			"byteLength":101532,
			"byteOffset":618136,
			"target":34962
		},
		{
			"buffer":0,
			"byteLength":67688,
			"byteOffset":719668,
			"target":34962
		},
		{
			"buffer":0,
			"byteLength":53328,
			"byteOffset":787356,
			"target":34963
		},
		{
			"buffer":0,
			"byteLength":184320,
			"byteOffset":840684,
			"target":34962
		},
		{
			"buffer":0,
			"byteLength":184320,
			"byteOffset":1025004,
			"target":34962
		},
		{
			"buffer":0,
			"byteLength":122880,
			"byteOffset":1209324,
			"target":34962
		},
		{
			"buffer":0,
			"byteLength":46080,
			"byteOffset":1332204,
			"target":34963
		},
		{
			"buffer":0,
			"byteLength":184320,
			"byteOffset":1378284,
			"target":34962
		},
		{
			"buffer":0,
			"byteLength":184320,
			"byteOffset":1562604,
			"target":34962
		},
		{
			"buffer":0,
			"byteLength":122880,
			"byteOffset":1746924,
			"target":34962
		},
		{
			"buffer":0,
			"byteLength":184320,
			"byteOffset":1869804,
			"target":34962
		},
		{
			"buffer":0,
			"byteLength":184320,
			"byteOffset":2054124,
			"target":34962
		},
		{
			"buffer":0,
			"byteLength":122880,
			"byteOffset":2238444,
			"target":34962
		},
		{
			"buffer":0,
			"byteLength":184320,
			"byteOffset":2361324,
			"target":34962
		},
		{
			"buffer":0,
			"byteLength":184320,
			"byteOffset":2545644,
			"target":34962
		},
		{
			"buffer":0,
			"byteLength":122880,
			"byteOffset":2729964,
			"target":34962
		}
	],
	"buffers":[
		{
			"byteLength":2852844,
			"uri":"BigCloud.bin"
		}
	]
}
