{
	"asset":{
		"generator":"Khronos glTF Blender I/O v4.1.63",
		"version":"2.0"
	},
	"scene":0,
	"scenes":[
		{
			"name":"Scene",
			"nodes":[
				0,
				1
			]
		}
	],
	"nodes":[
		{
			"mesh":0,
			"name":"\u7403",
			"scale":[
				2.4837937355041504,
				2.4837937355041504,
				2.4837937355041504
			]
		},
		{
			"mesh":1,
			"name":"\u5186\u9310",
			"rotation":[
				-0.7071068286895752,
				0,
				0,
				0.7071068286895752
			],
			"scale":[
				3.71634578704834,
				3.71634578704834,
				3.71634578704834
			],
			"translation":[
				0,
				0,
				-2.220560073852539
			]
		}
	],
	"materials":[
		{
			"doubleSided":true,
			"name":"\u30de\u30c6\u30ea\u30a2\u30eb.001",
			"pbrMetallicRoughness":{
				"baseColorFactor":[
					0.6000000238418579,
					0.8268982172012329,
					1,
					1
				],
				"metallicFactor":0,
				"roughnessFactor":0.5
			}
		},
		{
			"doubleSided":true,
			"name":"\u30de\u30c6\u30ea\u30a2\u30eb.002",
			"pbrMetallicRoughness":{
				"baseColorFactor":[
					0.48000001907348633,
					0.6617599725723267,
					0.800000011920929,
					1
				],
				"metallicFactor":0,
				"roughnessFactor":0.5
			}
		}
	],
	"meshes":[
		{
			"name":"\u7403",
			"primitives":[
				{
					"attributes":{
						"POSITION":0,
						"NORMAL":1,
						"TEXCOORD_0":2
					},
					"indices":3,
					"material":0
				}
			]
		},
		{
			"name":"\u5186\u9310",
			"primitives":[
				{
					"attributes":{
						"POSITION":4,
						"NORMAL":5,
						"TEXCOORD_0":6
					},
					"indices":7,
					"material":1
				}
			]
		}
	],
	"accessors":[
		{
			"bufferView":0,
			"componentType":5126,
			"count":126976,
			"max":[
				0.9872310161590576,
				0.9975767135620117,
				0.9872307181358337
			],
			"min":[
				-0.9872305393218994,
				-0.9975767135620117,
				-0.9872310161590576
			],
			"type":"VEC3"
		},
		{
			"bufferView":1,
			"componentType":5126,
			"count":126976,
			"type":"VEC3"
		},
		{
			"bufferView":2,
			"componentType":5126,
			"count":126976,
			"type":"VEC2"
		},
		{
			"bufferView":3,
			"componentType":5125,
			"count":190464,
			"type":"SCALAR"
		},
		{
			"bufferView":4,
			"componentType":5126,
			"count":35356,
			"max":[
				0.613053560256958,
				0.7477483153343201,
				0.6076175570487976
			],
			"min":[
				-0.6130540370941162,
				-0.3607308268547058,
				-0.6076179146766663
			],
			"type":"VEC3"
		},
		{
			"bufferView":5,
			"componentType":5126,
			"count":35356,
			"type":"VEC3"
		},
		{
			"bufferView":6,
			"componentType":5126,
			"count":35356,
			"type":"VEC2"
		},
		{
			"bufferView":7,
			"componentType":5123,
			"count":54804,
			"type":"SCALAR"
		}
	],
	"bufferViews":[
		{
			"buffer":0,
			"byteLength":1523712,
			"byteOffset":0,
			"target":34962
		},
		{
			"buffer":0,
			"byteLength":1523712,
			"byteOffset":1523712,
			"target":34962
		},
		{
			"buffer":0,
			"byteLength":1015808,
			"byteOffset":3047424,
			"target":34962
		},
		{
			"buffer":0,
			"byteLength":761856,
			"byteOffset":4063232,
			"target":34963
		},
		{
			"buffer":0,
			"byteLength":424272,
			"byteOffset":4825088,
			"target":34962
		},
		{
			"buffer":0,
			"byteLength":424272,
			"byteOffset":5249360,
			"target":34962
		},
		{
			"buffer":0,
			"byteLength":282848,
			"byteOffset":5673632,
			"target":34962
		},
		{
			"buffer":0,
			"byteLength":109608,
			"byteOffset":5956480,
			"target":34963
		}
	],
	"buffers":[
		{
			"byteLength":6066088,
			"uri":"Bullet.bin"
		}
	]
}
