{
	"asset":{
		"generator":"Khronos glTF Blender I/O v4.1.63",
		"version":"2.0"
	},
	"scene":0,
	"scenes":[
		{
			"name":"Scene",
			"nodes":[
				0,
				1,
				2
			]
		}
	],
	"nodes":[
		{
			"mesh":0,
			"name":"\u30c8\u30fc\u30e9\u30b9",
			"rotation":[
				-0.05747385323047638,
				0,
				0,
				0.9983471035957336
			],
			"translation":[
				-8.790940046310425e-05,
				-0.2720474898815155,
				0.1313978135585785
			]
		},
		{
			"mesh":1,
			"name":"\u7403",
			"rotation":[
				-0.008503424003720284,
				3.487649519229308e-05,
				6.358023256325396e-06,
				0.9999638795852661
			],
			"scale":[
				1.2088370323181152,
				1.2088371515274048,
				1.7638580799102783
			],
			"translation":[
				-0.020653391256928444,
				1.6354280710220337,
				0.7866584658622742
			]
		},
		{
			"mesh":2,
			"name":"\u5186\u67f1.001",
			"rotation":[
				-0.6937369108200073,
				0,
				0,
				0.7202284932136536
			],
			"scale":[
				1,
				0.1651734709739685,
				1
			],
			"translation":[
				0,
				1.6356868743896484,
				0
			]
		}
	],
	"materials":[
		{
			"doubleSided":true,
			"name":"\u30de\u30c6\u30ea\u30a2\u30eb.001",
			"pbrMetallicRoughness":{
				"baseColorFactor":[
					0.67313551902771,
					0.7477701902389526,
					1,
					1
				],
				"metallicFactor":0,
				"roughnessFactor":0.5
			}
		},
		{
			"doubleSided":true,
			"name":"\u30de\u30c6\u30ea\u30a2\u30eb",
			"pbrMetallicRoughness":{
				"baseColorFactor":[
					0.48588401079177856,
					0.950644850730896,
					1,
					1
				],
				"metallicFactor":0,
				"roughnessFactor":0.5
			}
		}
	],
	"meshes":[
		{
			"name":"\u30c8\u30fc\u30e9\u30b9",
			"primitives":[
				{
					"attributes":{
						"POSITION":0,
						"NORMAL":1,
						"TEXCOORD_0":2
					},
					"indices":3,
					"material":0
				}
			]
		},
		{
			"name":"\u7403",
			"primitives":[
				{
					"attributes":{
						"POSITION":4,
						"NORMAL":5,
						"TEXCOORD_0":6
					},
					"indices":7,
					"material":1
				}
			]
		},
		{
			"name":"\u5186\u67f1.001",
			"primitives":[
				{
					"attributes":{
						"POSITION":8,
						"NORMAL":9,
						"TEXCOORD_0":10
					},
					"indices":11
				}
			]
		}
	],
	"accessors":[
		{
			"bufferView":0,
			"componentType":5126,
			"count":147456,
			"max":[
				1.2250784635543823,
				3.0361440181732178,
				0.5191353559494019
			],
			"min":[
				-1.2250779867172241,
				0.6967722773551941,
				-0.519135594367981
			],
			"type":"VEC3"
		},
		{
			"bufferView":1,
			"componentType":5126,
			"count":147456,
			"type":"VEC3"
		},
		{
			"bufferView":2,
			"componentType":5126,
			"count":147456,
			"type":"VEC2"
		},
		{
			"bufferView":3,
			"componentType":5125,
			"count":221184,
			"type":"SCALAR"
		},
		{
			"bufferView":4,
			"componentType":5126,
			"count":27416,
			"max":[
				1.0494019985198975,
				0.9687519669532776,
				0.9504539370536804
			],
			"min":[
				-1.0067360401153564,
				-0.9807962775230408,
				-0.6756121516227722
			],
			"type":"VEC3"
		},
		{
			"bufferView":5,
			"componentType":5126,
			"count":27416,
			"type":"VEC3"
		},
		{
			"bufferView":6,
			"componentType":5126,
			"count":27416,
			"type":"VEC2"
		},
		{
			"bufferView":7,
			"componentType":5123,
			"count":159744,
			"type":"SCALAR"
		},
		{
			"bufferView":8,
			"componentType":5126,
			"count":192,
			"max":[
				1,
				1,
				1
			],
			"min":[
				-1,
				-1,
				-1
			],
			"type":"VEC3"
		},
		{
			"bufferView":9,
			"componentType":5126,
			"count":192,
			"type":"VEC3"
		},
		{
			"bufferView":10,
			"componentType":5126,
			"count":192,
			"type":"VEC2"
		},
		{
			"bufferView":11,
			"componentType":5123,
			"count":372,
			"type":"SCALAR"
		}
	],
	"bufferViews":[
		{
			"buffer":0,
			"byteLength":1769472,
			"byteOffset":0,
			"target":34962
		},
		{
			"buffer":0,
			"byteLength":1769472,
			"byteOffset":1769472,
			"target":34962
		},
		{
			"buffer":0,
			"byteLength":1179648,
			"byteOffset":3538944,
			"target":34962
		},
		{
			"buffer":0,
			"byteLength":884736,
			"byteOffset":4718592,
			"target":34963
		},
		{
			"buffer":0,
			"byteLength":328992,
			"byteOffset":5603328,
			"target":34962
		},
		{
			"buffer":0,
			"byteLength":328992,
			"byteOffset":5932320,
			"target":34962
		},
		{
			"buffer":0,
			"byteLength":219328,
			"byteOffset":6261312,
			"target":34962
		},
		{
			"buffer":0,
			"byteLength":319488,
			"byteOffset":6480640,
			"target":34963
		},
		{
			"buffer":0,
			"byteLength":2304,
			"byteOffset":6800128,
			"target":34962
		},
		{
			"buffer":0,
			"byteLength":2304,
			"byteOffset":6802432,
			"target":34962
		},
		{
			"buffer":0,
			"byteLength":1536,
			"byteOffset":6804736,
			"target":34962
		},
		{
			"buffer":0,
			"byteLength":744,
			"byteOffset":6806272,
			"target":34963
		}
	],
	"buffers":[
		{
			"byteLength":6807016,
			"uri":"Cannon.bin"
		}
	]
}
