{
	"asset":{
		"generator":"Khronos glTF Blender I/O v4.1.63",
		"version":"2.0"
	},
	"scene":0,
	"scenes":[
		{
			"name":"Scene",
			"nodes":[
				0,
				1,
				2,
				3
			]
		}
	],
	"nodes":[
		{
			"mesh":0,
			"name":"\u30c8\u30fc\u30e9\u30b9",
			"rotation":[
				-0.05747385323047638,
				0,
				0,
				0.9983471035957336
			],
			"translation":[
				0.06822384148836136,
				-0.11359106004238129,
				0.1313978135585785
			]
		},
		{
			"mesh":1,
			"name":"\u7403",
			"rotation":[
				-0.008503425866365433,
				3.487650246825069e-05,
				6.358025075314799e-06,
				0.9999639391899109
			],
			"scale":[
				1,
				1,
				1.4591364860534668
			],
			"translation":[
				-0.020653391256928444,
				1.6354280710220337,
				0.7866584658622742
			]
		},
		{
			"mesh":2,
			"name":"\u5186\u67f1",
			"scale":[
				1,
				0.3202322721481323,
				1
			],
			"translation":[
				0.05016804486513138,
				0.32396823167800903,
				0.8686127662658691
			]
		},
		{
			"mesh":3,
			"name":"\u5186\u67f1.001",
			"rotation":[
				-0.6937369108200073,
				0,
				0,
				0.7202284932136536
			],
			"scale":[
				1,
				0.1651734709739685,
				1
			],
			"translation":[
				0,
				1.6356868743896484,
				0
			]
		}
	],
	"meshes":[
		{
			"name":"\u30c8\u30fc\u30e9\u30b9",
			"primitives":[
				{
					"attributes":{
						"POSITION":0,
						"NORMAL":1,
						"TEXCOORD_0":2
					},
					"indices":3
				}
			]
		},
		{
			"name":"\u7403",
			"primitives":[
				{
					"attributes":{
						"POSITION":4,
						"NORMAL":5,
						"TEXCOORD_0":6
					},
					"indices":7
				}
			]
		},
		{
			"name":"\u5186\u67f1",
			"primitives":[
				{
					"attributes":{
						"POSITION":8,
						"NORMAL":9,
						"TEXCOORD_0":10
					},
					"indices":11
				}
			]
		},
		{
			"name":"\u5186\u67f1.001",
			"primitives":[
				{
					"attributes":{
						"POSITION":12,
						"NORMAL":13,
						"TEXCOORD_0":14
					},
					"indices":11
				}
			]
		}
	],
	"accessors":[
		{
			"bufferView":0,
			"componentType":5126,
			"count":2304,
			"max":[
				1.2385979890823364,
				3.0463669300079346,
				0.5359835624694824
			],
			"min":[
				-1.2385975122451782,
				0.6865494251251221,
				-0.5359839200973511
			],
			"type":"VEC3"
		},
		{
			"bufferView":1,
			"componentType":5126,
			"count":2304,
			"type":"VEC3"
		},
		{
			"bufferView":2,
			"componentType":5126,
			"count":2304,
			"type":"VEC2"
		},
		{
			"bufferView":3,
			"componentType":5123,
			"count":3456,
			"type":"SCALAR"
		},
		{
			"bufferView":4,
			"componentType":5126,
			"count":1662,
			"max":[
				0.9999997019767761,
				1,
				0.9999993443489075
			],
			"min":[
				-0.9999990463256836,
				-1,
				-0.613947868347168
			],
			"type":"VEC3"
		},
		{
			"bufferView":5,
			"componentType":5126,
			"count":1662,
			"type":"VEC3"
		},
		{
			"bufferView":6,
			"componentType":5126,
			"count":1662,
			"type":"VEC2"
		},
		{
			"bufferView":7,
			"componentType":5123,
			"count":2406,
			"type":"SCALAR"
		},
		{
			"bufferView":8,
			"componentType":5126,
			"count":192,
			"max":[
				1,
				1,
				1
			],
			"min":[
				-1,
				-1,
				-1
			],
			"type":"VEC3"
		},
		{
			"bufferView":9,
			"componentType":5126,
			"count":192,
			"type":"VEC3"
		},
		{
			"bufferView":10,
			"componentType":5126,
			"count":192,
			"type":"VEC2"
		},
		{
			"bufferView":11,
			"componentType":5123,
			"count":372,
			"type":"SCALAR"
		},
		{
			"bufferView":12,
			"componentType":5126,
			"count":192,
			"max":[
				1,
				1,
				1
			],
			"min":[
				-1,
				-1,
				-1
			],
			"type":"VEC3"
		},
		{
			"bufferView":13,
			"componentType":5126,
			"count":192,
			"type":"VEC3"
		},
		{
			"bufferView":14,
			"componentType":5126,
			"count":192,
			"type":"VEC2"
		}
	],
	"bufferViews":[
		{
			"buffer":0,
			"byteLength":27648,
			"byteOffset":0,
			"target":34962
		},
		{
			"buffer":0,
			"byteLength":27648,
			"byteOffset":27648,
			"target":34962
		},
		{
			"buffer":0,
			"byteLength":18432,
			"byteOffset":55296,
			"target":34962
		},
		{
			"buffer":0,
			"byteLength":6912,
			"byteOffset":73728,
			"target":34963
		},
		{
			"buffer":0,
			"byteLength":19944,
			"byteOffset":80640,
			"target":34962
		},
		{
			"buffer":0,
			"byteLength":19944,
			"byteOffset":100584,
			"target":34962
		},
		{
			"buffer":0,
			"byteLength":13296,
			"byteOffset":120528,
			"target":34962
		},
		{
			"buffer":0,
			"byteLength":4812,
			"byteOffset":133824,
			"target":34963
		},
		{
			"buffer":0,
			"byteLength":2304,
			"byteOffset":138636,
			"target":34962
		},
		{
			"buffer":0,
			"byteLength":2304,
			"byteOffset":140940,
			"target":34962
		},
		{
			"buffer":0,
			"byteLength":1536,
			"byteOffset":143244,
			"target":34962
		},
		{
			"buffer":0,
			"byteLength":744,
			"byteOffset":144780,
			"target":34963
		},
		{
			"buffer":0,
			"byteLength":2304,
			"byteOffset":145524,
			"target":34962
		},
		{
			"buffer":0,
			"byteLength":2304,
			"byteOffset":147828,
			"target":34962
		},
		{
			"buffer":0,
			"byteLength":1536,
			"byteOffset":150132,
			"target":34962
		}
	],
	"buffers":[
		{
			"byteLength":151668,
			"uri":"Cannon.bin"
		}
	]
}
