{
	"asset":{
		"generator":"Khronos glTF Blender I/O v4.1.63",
		"version":"2.0"
	},
	"scene":0,
	"scenes":[
		{
			"name":"Scene",
			"nodes":[
				0,
				1,
				2,
				3,
				4,
				5,
				6,
				7,
				8
			]
		}
	],
	"nodes":[
		{
			"mesh":0,
			"name":"ICO\u7403",
			"rotation":[
				-1,
				0,
				0,
				4.371138828673793e-08
			],
			"scale":[
				0.550000011920929,
				3.4704384803771973,
				0.5339999794960022
			],
			"translation":[
				10.075153350830078,
				2.302713632583618,
				0.031111717224121094
			]
		},
		{
			"mesh":1,
			"name":"ICO\u7403.001",
			"rotation":[
				0,
				0,
				-0.7071068286895752,
				0.7071068286895752
			],
			"scale":[
				1,
				27.837926864624023,
				1
			],
			"translation":[
				0,
				0,
				0.031111717224121094
			]
		},
		{
			"mesh":2,
			"name":"ICO\u7403.002",
			"rotation":[
				0,
				0.7071068286895752,
				0,
				0.7071068286895752
			],
			"scale":[
				0.550000011920929,
				3.4704384803771973,
				0.5339999794960022
			],
			"translation":[
				-0.39587974548339844,
				2.302713632583618,
				0.031111717224121094
			]
		},
		{
			"mesh":3,
			"name":"ICO\u7403.003",
			"rotation":[
				-0.7071068286895752,
				0,
				0.7071068286895752,
				3.090862321641907e-08
			],
			"scale":[
				0.550000011920929,
				3.4704384803771973,
				0.5339999794960022
			],
			"translation":[
				-6.873188018798828,
				-2.0487239360809326,
				0.031111717224121094
			]
		},
		{
			"mesh":4,
			"name":"ICO\u7403.004",
			"scale":[
				0.550000011920929,
				3.4704384803771973,
				0.5339999794960022
			],
			"translation":[
				5.253808498382568,
				-2.0487239360809326,
				0.031111717224121094
			]
		},
		{
			"mesh":5,
			"name":"ICO\u7403.005",
			"rotation":[
				-0.5,
				0.5,
				-0.5,
				0.4999999701976776
			],
			"scale":[
				0.550000011920929,
				3.4704384803771973,
				0.5339999794960022
			],
			"translation":[
				-8.763962745666504,
				-0.2007373720407486,
				2.1549763679504395
			]
		},
		{
			"mesh":6,
			"name":"ICO\u7403.006",
			"rotation":[
				0.7071068286895752,
				0,
				0,
				0.7071068286895752
			],
			"scale":[
				0.550000011920929,
				3.4704384803771973,
				0.5339999794960022
			],
			"translation":[
				1.7070701122283936,
				-0.2007373720407486,
				2.1549763679504395
			]
		},
		{
			"mesh":7,
			"name":"ICO\u7403.007",
			"rotation":[
				0.7071068286895752,
				0,
				0,
				0.7071068286895752
			],
			"scale":[
				0.550000011920929,
				3.4704384803771973,
				0.5339999794960022
			],
			"translation":[
				7.065479278564453,
				-0.2007373720407486,
				-1.9164509773254395
			]
		},
		{
			"mesh":8,
			"name":"ICO\u7403.008",
			"rotation":[
				-0.5,
				0.5,
				-0.5,
				0.4999999701976776
			],
			"scale":[
				0.550000011920929,
				3.4704384803771973,
				0.5339999794960022
			],
			"translation":[
				-3.405553102493286,
				-0.2007373720407486,
				-1.9164509773254395
			]
		}
	],
	"materials":[
		{
			"doubleSided":true,
			"name":"\u30de\u30c6\u30ea\u30a2\u30eb.001",
			"pbrMetallicRoughness":{
				"baseColorFactor":[
					0.8500000238418579,
					0.9750000238418579,
					1,
					1
				],
				"metallicFactor":0,
				"roughnessFactor":0.5
			}
		},
		{
			"doubleSided":true,
			"name":"\u30de\u30c6\u30ea\u30a2\u30eb",
			"pbrMetallicRoughness":{
				"baseColorFactor":[
					0.8498965501785278,
					0.9753798246383667,
					1,
					1
				],
				"metallicFactor":0,
				"roughnessFactor":0.5
			}
		},
		{
			"doubleSided":true,
			"name":"\u30de\u30c6\u30ea\u30a2\u30eb.002",
			"pbrMetallicRoughness":{
				"baseColorFactor":[
					0.8500000238418579,
					0.9750000238418579,
					1,
					1
				],
				"metallicFactor":0,
				"roughnessFactor":0.5
			}
		},
		{
			"doubleSided":true,
			"name":"\u30de\u30c6\u30ea\u30a2\u30eb.006",
			"pbrMetallicRoughness":{
				"baseColorFactor":[
					0.8500000238418579,
					0.9750000238418579,
					1,
					1
				],
				"metallicFactor":0,
				"roughnessFactor":0.5
			}
		},
		{
			"doubleSided":true,
			"name":"\u30de\u30c6\u30ea\u30a2\u30eb.005",
			"pbrMetallicRoughness":{
				"baseColorFactor":[
					0.8500000238418579,
					0.9750000238418579,
					1,
					1
				],
				"metallicFactor":0,
				"roughnessFactor":0.5
			}
		},
		{
			"doubleSided":true,
			"name":"\u30de\u30c6\u30ea\u30a2\u30eb.004",
			"pbrMetallicRoughness":{
				"baseColorFactor":[
					0.8500000238418579,
					0.9750000238418579,
					1,
					1
				],
				"metallicFactor":0,
				"roughnessFactor":0.5
			}
		},
		{
			"doubleSided":true,
			"name":"\u30de\u30c6\u30ea\u30a2\u30eb.003",
			"pbrMetallicRoughness":{
				"baseColorFactor":[
					0.8500000238418579,
					0.9750000238418579,
					1,
					1
				],
				"metallicFactor":0,
				"roughnessFactor":0.5
			}
		},
		{
			"doubleSided":true,
			"name":"\u30de\u30c6\u30ea\u30a2\u30eb.007",
			"pbrMetallicRoughness":{
				"baseColorFactor":[
					0.8500000238418579,
					0.9750000238418579,
					1,
					1
				],
				"metallicFactor":0,
				"roughnessFactor":0.5
			}
		},
		{
			"doubleSided":true,
			"name":"\u30de\u30c6\u30ea\u30a2\u30eb.008",
			"pbrMetallicRoughness":{
				"baseColorFactor":[
					0.8500000238418579,
					0.9750000238418579,
					1,
					1
				],
				"metallicFactor":0,
				"roughnessFactor":0.5
			}
		}
	],
	"meshes":[
		{
			"name":"ICO\u7403",
			"primitives":[
				{
					"attributes":{
						"POSITION":0,
						"NORMAL":1,
						"TEXCOORD_0":2
					},
					"indices":3,
					"material":0
				}
			]
		},
		{
			"name":"ICO\u7403.001",
			"primitives":[
				{
					"attributes":{
						"POSITION":4,
						"NORMAL":5,
						"TEXCOORD_0":6
					},
					"indices":3,
					"material":1
				}
			]
		},
		{
			"name":"ICO\u7403.002",
			"primitives":[
				{
					"attributes":{
						"POSITION":7,
						"NORMAL":8,
						"TEXCOORD_0":9
					},
					"indices":3,
					"material":2
				}
			]
		},
		{
			"name":"ICO\u7403.003",
			"primitives":[
				{
					"attributes":{
						"POSITION":10,
						"NORMAL":11,
						"TEXCOORD_0":12
					},
					"indices":3,
					"material":3
				}
			]
		},
		{
			"name":"ICO\u7403.004",
			"primitives":[
				{
					"attributes":{
						"POSITION":13,
						"NORMAL":14,
						"TEXCOORD_0":15
					},
					"indices":3,
					"material":4
				}
			]
		},
		{
			"name":"ICO\u7403.005",
			"primitives":[
				{
					"attributes":{
						"POSITION":16,
						"NORMAL":17,
						"TEXCOORD_0":18
					},
					"indices":3,
					"material":5
				}
			]
		},
		{
			"name":"ICO\u7403.006",
			"primitives":[
				{
					"attributes":{
						"POSITION":19,
						"NORMAL":20,
						"TEXCOORD_0":21
					},
					"indices":3,
					"material":6
				}
			]
		},
		{
			"name":"ICO\u7403.007",
			"primitives":[
				{
					"attributes":{
						"POSITION":22,
						"NORMAL":23,
						"TEXCOORD_0":24
					},
					"indices":3,
					"material":7
				}
			]
		},
		{
			"name":"ICO\u7403.008",
			"primitives":[
				{
					"attributes":{
						"POSITION":25,
						"NORMAL":26,
						"TEXCOORD_0":27
					},
					"indices":3,
					"material":8
				}
			]
		}
	],
	"accessors":[
		{
			"bufferView":0,
			"componentType":5126,
			"count":2230,
			"max":[
				1.0806636810302734,
				0.40981054306030273,
				0.8757326602935791
			],
			"min":[
				-1.0703763961791992,
				-0.3998854160308838,
				-1.0450037717819214
			],
			"type":"VEC3"
		},
		{
			"bufferView":1,
			"componentType":5126,
			"count":2230,
			"type":"VEC3"
		},
		{
			"bufferView":2,
			"componentType":5126,
			"count":2230,
			"type":"VEC2"
		},
		{
			"bufferView":3,
			"componentType":5123,
			"count":11544,
			"type":"SCALAR"
		},
		{
			"bufferView":4,
			"componentType":5126,
			"count":2230,
			"max":[
				1.0806636810302734,
				0.40981054306030273,
				0.8757326602935791
			],
			"min":[
				-1.0703763961791992,
				-0.3998854160308838,
				-1.0450037717819214
			],
			"type":"VEC3"
		},
		{
			"bufferView":5,
			"componentType":5126,
			"count":2230,
			"type":"VEC3"
		},
		{
			"bufferView":6,
			"componentType":5126,
			"count":2230,
			"type":"VEC2"
		},
		{
			"bufferView":7,
			"componentType":5126,
			"count":2230,
			"max":[
				1.0806636810302734,
				0.40981054306030273,
				0.8757326602935791
			],
			"min":[
				-1.0703763961791992,
				-0.3998854160308838,
				-1.0450037717819214
			],
			"type":"VEC3"
		},
		{
			"bufferView":8,
			"componentType":5126,
			"count":2230,
			"type":"VEC3"
		},
		{
			"bufferView":9,
			"componentType":5126,
			"count":2230,
			"type":"VEC2"
		},
		{
			"bufferView":10,
			"componentType":5126,
			"count":2230,
			"max":[
				1.0806636810302734,
				0.40981054306030273,
				0.8757326602935791
			],
			"min":[
				-1.0703763961791992,
				-0.3998854160308838,
				-1.0450037717819214
			],
			"type":"VEC3"
		},
		{
			"bufferView":11,
			"componentType":5126,
			"count":2230,
			"type":"VEC3"
		},
		{
			"bufferView":12,
			"componentType":5126,
			"count":2230,
			"type":"VEC2"
		},
		{
			"bufferView":13,
			"componentType":5126,
			"count":2230,
			"max":[
				1.0806636810302734,
				0.40981054306030273,
				0.8757326602935791
			],
			"min":[
				-1.0703763961791992,
				-0.3998854160308838,
				-1.0450037717819214
			],
			"type":"VEC3"
		},
		{
			"bufferView":14,
			"componentType":5126,
			"count":2230,
			"type":"VEC3"
		},
		{
			"bufferView":15,
			"componentType":5126,
			"count":2230,
			"type":"VEC2"
		},
		{
			"bufferView":16,
			"componentType":5126,
			"count":2230,
			"max":[
				1.0806636810302734,
				0.40981054306030273,
				0.8757326602935791
			],
			"min":[
				-1.0703763961791992,
				-0.3998854160308838,
				-1.0450037717819214
			],
			"type":"VEC3"
		},
		{
			"bufferView":17,
			"componentType":5126,
			"count":2230,
			"type":"VEC3"
		},
		{
			"bufferView":18,
			"componentType":5126,
			"count":2230,
			"type":"VEC2"
		},
		{
			"bufferView":19,
			"componentType":5126,
			"count":2230,
			"max":[
				1.0806636810302734,
				0.40981054306030273,
				0.8757326602935791
			],
			"min":[
				-1.0703763961791992,
				-0.3998854160308838,
				-1.0450037717819214
			],
			"type":"VEC3"
		},
		{
			"bufferView":20,
			"componentType":5126,
			"count":2230,
			"type":"VEC3"
		},
		{
			"bufferView":21,
			"componentType":5126,
			"count":2230,
			"type":"VEC2"
		},
		{
			"bufferView":22,
			"componentType":5126,
			"count":2230,
			"max":[
				1.0806636810302734,
				0.40981054306030273,
				0.8757326602935791
			],
			"min":[
				-1.0703763961791992,
				-0.3998854160308838,
				-1.0450037717819214
			],
			"type":"VEC3"
		},
		{
			"bufferView":23,
			"componentType":5126,
			"count":2230,
			"type":"VEC3"
		},
		{
			"bufferView":24,
			"componentType":5126,
			"count":2230,
			"type":"VEC2"
		},
		{
			"bufferView":25,
			"componentType":5126,
			"count":2230,
			"max":[
				1.0806636810302734,
				0.40981054306030273,
				0.8757326602935791
			],
			"min":[
				-1.0703763961791992,
				-0.3998854160308838,
				-1.0450037717819214
			],
			"type":"VEC3"
		},
		{
			"bufferView":26,
			"componentType":5126,
			"count":2230,
			"type":"VEC3"
		},
		{
			"bufferView":27,
			"componentType":5126,
			"count":2230,
			"type":"VEC2"
		}
	],
	"bufferViews":[
		{
			"buffer":0,
			"byteLength":26760,
			"byteOffset":0,
			"target":34962
		},
		{
			"buffer":0,
			"byteLength":26760,
			"byteOffset":26760,
			"target":34962
		},
		{
			"buffer":0,
			"byteLength":17840,
			"byteOffset":53520,
			"target":34962
		},
		{
			"buffer":0,
			"byteLength":23088,
			"byteOffset":71360,
			"target":34963
		},
		{
			"buffer":0,
			"byteLength":26760,
			"byteOffset":94448,
			"target":34962
		},
		{
			"buffer":0,
			"byteLength":26760,
			"byteOffset":121208,
			"target":34962
		},
		{
			"buffer":0,
			"byteLength":17840,
			"byteOffset":147968,
			"target":34962
		},
		{
			"buffer":0,
			"byteLength":26760,
			"byteOffset":165808,
			"target":34962
		},
		{
			"buffer":0,
			"byteLength":26760,
			"byteOffset":192568,
			"target":34962
		},
		{
			"buffer":0,
			"byteLength":17840,
			"byteOffset":219328,
			"target":34962
		},
		{
			"buffer":0,
			"byteLength":26760,
			"byteOffset":237168,
			"target":34962
		},
		{
			"buffer":0,
			"byteLength":26760,
			"byteOffset":263928,
			"target":34962
		},
		{
			"buffer":0,
			"byteLength":17840,
			"byteOffset":290688,
			"target":34962
		},
		{
			"buffer":0,
			"byteLength":26760,
			"byteOffset":308528,
			"target":34962
		},
		{
			"buffer":0,
			"byteLength":26760,
			"byteOffset":335288,
			"target":34962
		},
		{
			"buffer":0,
			"byteLength":17840,
			"byteOffset":362048,
			"target":34962
		},
		{
			"buffer":0,
			"byteLength":26760,
			"byteOffset":379888,
			"target":34962
		},
		{
			"buffer":0,
			"byteLength":26760,
			"byteOffset":406648,
			"target":34962
		},
		{
			"buffer":0,
			"byteLength":17840,
			"byteOffset":433408,
			"target":34962
		},
		{
			"buffer":0,
			"byteLength":26760,
			"byteOffset":451248,
			"target":34962
		},
		{
			"buffer":0,
			"byteLength":26760,
			"byteOffset":478008,
			"target":34962
		},
		{
			"buffer":0,
			"byteLength":17840,
			"byteOffset":504768,
			"target":34962
		},
		{
			"buffer":0,
			"byteLength":26760,
			"byteOffset":522608,
			"target":34962
		},
		{
			"buffer":0,
			"byteLength":26760,
			"byteOffset":549368,
			"target":34962
		},
		{
			"buffer":0,
			"byteLength":17840,
			"byteOffset":576128,
			"target":34962
		},
		{
			"buffer":0,
			"byteLength":26760,
			"byteOffset":593968,
			"target":34962
		},
		{
			"buffer":0,
			"byteLength":26760,
			"byteOffset":620728,
			"target":34962
		},
		{
			"buffer":0,
			"byteLength":17840,
			"byteOffset":647488,
			"target":34962
		}
	],
	"buffers":[
		{
			"byteLength":665328,
			"uri":"Pole.bin"
		}
	]
}
