{
	"asset":{
		"generator":"Khronos glTF Blender I/O v4.1.63",
		"version":"2.0"
	},
	"scene":0,
	"scenes":[
		{
			"name":"Scene",
			"nodes":[
				0
			]
		}
	],
	"nodes":[
		{
			"mesh":0,
			"name":"\u7403"
		}
	],
	"materials":[
		{
			"doubleSided":true,
			"name":"\u30de\u30c6\u30ea\u30a2\u30eb",
			"pbrMetallicRoughness":{
				"baseColorFactor":[
					0.8003232479095459,
					0.03698849305510521,
					0,
					1
				],
				"metallicFactor":0,
				"roughnessFactor":0.5
			}
		}
	],
	"meshes":[
		{
			"name":"\u7403",
			"primitives":[
				{
					"attributes":{
						"POSITION":0,
						"NORMAL":1,
						"TEXCOORD_0":2
					},
					"indices":3,
					"material":0
				}
			]
		}
	],
	"accessors":[
		{
			"bufferView":0,
			"componentType":5126,
			"count":186141,
			"max":[
				0.9999997019767761,
				1,
				0.9999993443489075
			],
			"min":[
				-0.9999990463256836,
				-1,
				-1
			],
			"type":"VEC3"
		},
		{
			"bufferView":1,
			"componentType":5126,
			"count":186141,
			"type":"VEC3"
		},
		{
			"bufferView":2,
			"componentType":5126,
			"count":186141,
			"type":"VEC2"
		},
		{
			"bufferView":3,
			"componentType":5125,
			"count":737280,
			"type":"SCALAR"
		}
	],
	"bufferViews":[
		{
			"buffer":0,
			"byteLength":2233692,
			"byteOffset":0,
			"target":34962
		},
		{
			"buffer":0,
			"byteLength":2233692,
			"byteOffset":2233692,
			"target":34962
		},
		{
			"buffer":0,
			"byteLength":1489128,
			"byteOffset":4467384,
			"target":34962
		},
		{
			"buffer":0,
			"byteLength":2949120,
			"byteOffset":5956512,
			"target":34963
		}
	],
	"buffers":[
		{
			"byteLength":8905632,
			"uri":"Ult.bin"
		}
	]
}
