{
	"asset":{
		"generator":"Khronos glTF Blender I/O v4.1.63",
		"version":"2.0"
	},
	"scene":0,
	"scenes":[
		{
			"name":"Scene",
			"nodes":[
				0,
				1,
				2
			]
		}
	],
	"nodes":[
		{
			"mesh":0,
			"name":"Cube",
			"scale":[
				23.25589942932129,
				1,
				1
			],
			"translation":[
				0,
				1.0675921440124512,
				0
			]
		},
		{
			"mesh":1,
			"name":"ICO\u7403",
			"scale":[
				3.384155750274658,
				2.2202014923095703,
				12.094447135925293
			],
			"translation":[
				-25.611740112304688,
				1.1378953456878662,
				0.6687095761299133
			]
		},
		{
			"mesh":2,
			"name":"ICO\u7403.001",
			"scale":[
				3.384155750274658,
				2.2202014923095703,
				12.094447135925293
			],
			"translation":[
				26.10924530029297,
				1.1378953456878662,
				0.6687095761299133
			]
		}
	],
	"materials":[
		{
			"doubleSided":true,
			"name":"Material",
			"pbrMetallicRoughness":{
				"baseColorFactor":[
					0.7109490633010864,
					0.6578437685966492,
					1,
					1
				],
				"roughnessFactor":0.5
			}
		},
		{
			"doubleSided":true,
			"name":"\u30de\u30c6\u30ea\u30a2\u30eb",
			"pbrMetallicRoughness":{
				"metallicFactor":0,
				"roughnessFactor":0.5
			}
		},
		{
			"doubleSided":true,
			"name":"\u30de\u30c6\u30ea\u30a2\u30eb.001",
			"pbrMetallicRoughness":{
				"metallicFactor":0,
				"roughnessFactor":0.5
			}
		}
	],
	"meshes":[
		{
			"name":"Cube",
			"primitives":[
				{
					"attributes":{
						"POSITION":0,
						"NORMAL":1,
						"TEXCOORD_0":2
					},
					"indices":3,
					"material":0
				}
			]
		},
		{
			"name":"ICO\u7403",
			"primitives":[
				{
					"attributes":{
						"POSITION":4,
						"NORMAL":5,
						"TEXCOORD_0":6
					},
					"indices":7,
					"material":1
				}
			]
		},
		{
			"name":"ICO\u7403.001",
			"primitives":[
				{
					"attributes":{
						"POSITION":8,
						"NORMAL":9,
						"TEXCOORD_0":10
					},
					"indices":11,
					"material":2
				}
			]
		}
	],
	"accessors":[
		{
			"bufferView":0,
			"componentType":5126,
			"count":24,
			"max":[
				1,
				1,
				1
			],
			"min":[
				-1,
				-1,
				-1
			],
			"type":"VEC3"
		},
		{
			"bufferView":1,
			"componentType":5126,
			"count":24,
			"type":"VEC3"
		},
		{
			"bufferView":2,
			"componentType":5126,
			"count":24,
			"type":"VEC2"
		},
		{
			"bufferView":3,
			"componentType":5123,
			"count":36,
			"type":"SCALAR"
		},
		{
			"bufferView":4,
			"componentType":5126,
			"count":11642,
			"max":[
				1.0176610946655273,
				0.43768587708473206,
				0.8875868320465088
			],
			"min":[
				-0.970212996006012,
				-0.918611466884613,
				-1.0454864501953125
			],
			"type":"VEC3"
		},
		{
			"bufferView":5,
			"componentType":5126,
			"count":11642,
			"type":"VEC3"
		},
		{
			"bufferView":6,
			"componentType":5126,
			"count":11642,
			"type":"VEC2"
		},
		{
			"bufferView":7,
			"componentType":5123,
			"count":17694,
			"type":"SCALAR"
		},
		{
			"bufferView":8,
			"componentType":5126,
			"count":11836,
			"max":[
				1.017662525177002,
				0.6308489441871643,
				0.8875868320465088
			],
			"min":[
				-0.9702115654945374,
				-0.918611466884613,
				-1.0454864501953125
			],
			"type":"VEC3"
		},
		{
			"bufferView":9,
			"componentType":5126,
			"count":11836,
			"type":"VEC3"
		},
		{
			"bufferView":10,
			"componentType":5126,
			"count":11836,
			"type":"VEC2"
		},
		{
			"bufferView":11,
			"componentType":5123,
			"count":17988,
			"type":"SCALAR"
		}
	],
	"bufferViews":[
		{
			"buffer":0,
			"byteLength":288,
			"byteOffset":0,
			"target":34962
		},
		{
			"buffer":0,
			"byteLength":288,
			"byteOffset":288,
			"target":34962
		},
		{
			"buffer":0,
			"byteLength":192,
			"byteOffset":576,
			"target":34962
		},
		{
			"buffer":0,
			"byteLength":72,
			"byteOffset":768,
			"target":34963
		},
		{
			"buffer":0,
			"byteLength":139704,
			"byteOffset":840,
			"target":34962
		},
		{
			"buffer":0,
			"byteLength":139704,
			"byteOffset":140544,
			"target":34962
		},
		{
			"buffer":0,
			"byteLength":93136,
			"byteOffset":280248,
			"target":34962
		},
		{
			"buffer":0,
			"byteLength":35388,
			"byteOffset":373384,
			"target":34963
		},
		{
			"buffer":0,
			"byteLength":142032,
			"byteOffset":408772,
			"target":34962
		},
		{
			"buffer":0,
			"byteLength":142032,
			"byteOffset":550804,
			"target":34962
		},
		{
			"buffer":0,
			"byteLength":94688,
			"byteOffset":692836,
			"target":34962
		},
		{
			"buffer":0,
			"byteLength":35976,
			"byteOffset":787524,
			"target":34963
		}
	],
	"buffers":[
		{
			"byteLength":823500,
			"uri":"Bridge.bin"
		}
	]
}
