{
	"asset":{
		"generator":"Khronos glTF Blender I/O v4.1.63",
		"version":"2.0"
	},
	"scene":0,
	"scenes":[
		{
			"name":"Scene",
			"nodes":[
				0
			]
		}
	],
	"nodes":[
		{
			"mesh":0,
			"name":"ICO\u7403",
			"scale":[
				4.25822114944458,
				0.8468250036239624,
				2.9172539710998535
			],
			"translation":[
				-3.545379877090454,
				0,
				0
			]
		}
	],
	"materials":[
		{
			"doubleSided":true,
			"name":"\u30de\u30c6\u30ea\u30a2\u30eb",
			"pbrMetallicRoughness":{
				"baseColorFactor":[
					0.800000011920929,
					0.800000011920929,
					0.800000011920929,
					1
				],
				"metallicFactor":0,
				"roughnessFactor":0.5
			}
		}
	],
	"meshes":[
		{
			"name":"ICO\u7403",
			"primitives":[
				{
					"attributes":{
						"POSITION":0,
						"NORMAL":1,
						"TEXCOORD_0":2
					},
					"indices":3,
					"material":0
				}
			]
		}
	],
	"accessors":[
		{
			"bufferView":0,
			"componentType":5126,
			"count":5001,
			"max":[
				2.7324986457824707,
				1.0774601697921753,
				1.1817617416381836
			],
			"min":[
				-1.082005500793457,
				-1.1676982641220093,
				-1.1511000394821167
			],
			"type":"VEC3"
		},
		{
			"bufferView":1,
			"componentType":5126,
			"count":5001,
			"type":"VEC3"
		},
		{
			"bufferView":2,
			"componentType":5126,
			"count":5001,
			"type":"VEC2"
		},
		{
			"bufferView":3,
			"componentType":5123,
			"count":28800,
			"type":"SCALAR"
		}
	],
	"bufferViews":[
		{
			"buffer":0,
			"byteLength":60012,
			"byteOffset":0,
			"target":34962
		},
		{
			"buffer":0,
			"byteLength":60012,
			"byteOffset":60012,
			"target":34962
		},
		{
			"buffer":0,
			"byteLength":40008,
			"byteOffset":120024,
			"target":34962
		},
		{
			"buffer":0,
			"byteLength":57600,
			"byteOffset":160032,
			"target":34963
		}
	],
	"buffers":[
		{
			"byteLength":217632,
			"uri":"Cloud.bin"
		}
	]
}
