{
	"asset":{
		"generator":"Khronos glTF Blender I/O v4.1.63",
		"version":"2.0"
	},
	"scene":0,
	"scenes":[
		{
			"name":"Scene",
			"nodes":[
				0
			]
		}
	],
	"nodes":[
		{
			"mesh":0,
			"name":"ICO\u7403",
			"rotation":[
				0,
				-0.7071068286895752,
				0,
				0.7071068286895752
			],
			"scale":[
				9.85731315612793,
				1.9618936777114868,
				9.85731315612793
			],
			"translation":[
				0,
				-0.0636301040649414,
				0
			]
		}
	],
	"materials":[
		{
			"doubleSided":true,
			"name":"\u30de\u30c6\u30ea\u30a2\u30eb",
			"pbrMetallicRoughness":{
				"metallicFactor":0,
				"roughnessFactor":0.5
			}
		}
	],
	"meshes":[
		{
			"name":"ICO\u7403.001",
			"primitives":[
				{
					"attributes":{
						"POSITION":0,
						"NORMAL":1,
						"TEXCOORD_0":2
					},
					"indices":3,
					"material":0
				}
			]
		}
	],
	"accessors":[
		{
			"bufferView":0,
			"componentType":5126,
			"count":3571,
			"max":[
				1.1094597578048706,
				0.12167596817016602,
				1.0201549530029297
			],
			"min":[
				-1.0645356178283691,
				-1.0328041315078735,
				-1.0952976942062378
			],
			"type":"VEC3"
		},
		{
			"bufferView":1,
			"componentType":5126,
			"count":3571,
			"type":"VEC3"
		},
		{
			"bufferView":2,
			"componentType":5126,
			"count":3571,
			"type":"VEC2"
		},
		{
			"bufferView":3,
			"componentType":5123,
			"count":15036,
			"type":"SCALAR"
		}
	],
	"bufferViews":[
		{
			"buffer":0,
			"byteLength":42852,
			"byteOffset":0,
			"target":34962
		},
		{
			"buffer":0,
			"byteLength":42852,
			"byteOffset":42852,
			"target":34962
		},
		{
			"buffer":0,
			"byteLength":28568,
			"byteOffset":85704,
			"target":34962
		},
		{
			"buffer":0,
			"byteLength":30072,
			"byteOffset":114272,
			"target":34963
		}
	],
	"buffers":[
		{
			"byteLength":144344,
			"uri":"Circle.bin"
		}
	]
}
