{
	"asset":{
		"generator":"Khronos glTF Blender I/O v4.1.62",
		"version":"2.0"
	},
	"scene":0,
	"scenes":[
		{
			"name":"Scene",
			"nodes":[
				0,
				1,
				2,
				3,
				4
			]
		}
	],
	"nodes":[
		{
			"mesh":0,
			"name":"\u5186\u67f1",
			"scale":[
				1,
				23.966115951538086,
				1
			],
			"translation":[
				1.9760684967041016,
				-21.518577575683594,
				5.092747211456299
			]
		},
		{
			"mesh":1,
			"name":"\u5186\u67f1.001",
			"scale":[
				1,
				23.966115951538086,
				1
			],
			"translation":[
				1.9760684967041016,
				-21.518577575683594,
				-3.981113910675049
			]
		},
		{
			"mesh":2,
			"name":"\u5186\u67f1.002",
			"scale":[
				1,
				23.966115951538086,
				1
			],
			"translation":[
				-2.023996353149414,
				-21.518577575683594,
				9.159828186035156
			]
		},
		{
			"mesh":3,
			"name":"\u5186\u67f1.003",
			"scale":[
				1,
				23.966115951538086,
				1
			],
			"translation":[
				-2.023996353149414,
				-21.518577575683594,
				-0.0014524459838867188
			]
		},
		{
			"mesh":4,
			"name":"\u5186\u67f1.004",
			"scale":[
				1,
				23.966115951538086,
				1
			],
			"translation":[
				-2.023996353149414,
				-21.518577575683594,
				-9.065680503845215
			]
		}
	],
	"materials":[
		{
			"doubleSided":true,
			"name":"\u30de\u30c6\u30ea\u30a2\u30eb",
			"pbrMetallicRoughness":{
				"baseColorFactor":[
					0.2797991931438446,
					0.06857208907604218,
					0.013816368766129017,
					1
				],
				"metallicFactor":0,
				"roughnessFactor":0.5
			}
		},
		{
			"doubleSided":true,
			"name":"\u30de\u30c6\u30ea\u30a2\u30eb.001",
			"pbrMetallicRoughness":{
				"baseColorFactor":[
					1,
					0.4664124846458435,
					0.10721176862716675,
					1
				],
				"metallicFactor":0,
				"roughnessFactor":0.5
			}
		},
		{
			"doubleSided":true,
			"name":"\u30de\u30c6\u30ea\u30a2\u30eb.002",
			"pbrMetallicRoughness":{
				"baseColorFactor":[
					0.2797991931438446,
					0.06857208907604218,
					0.013816368766129017,
					1
				],
				"metallicFactor":0,
				"roughnessFactor":0.5
			}
		},
		{
			"doubleSided":true,
			"name":"\u30de\u30c6\u30ea\u30a2\u30eb.003",
			"pbrMetallicRoughness":{
				"baseColorFactor":[
					1,
					0.4664124846458435,
					0.10721176862716675,
					1
				],
				"metallicFactor":0,
				"roughnessFactor":0.5
			}
		},
		{
			"doubleSided":true,
			"name":"\u30de\u30c6\u30ea\u30a2\u30eb.004",
			"pbrMetallicRoughness":{
				"baseColorFactor":[
					0.2797991931438446,
					0.06857208907604218,
					0.013816368766129017,
					1
				],
				"metallicFactor":0,
				"roughnessFactor":0.5
			}
		},
		{
			"doubleSided":true,
			"name":"\u30de\u30c6\u30ea\u30a2\u30eb.005",
			"pbrMetallicRoughness":{
				"baseColorFactor":[
					1,
					0.4664124846458435,
					0.10721176862716675,
					1
				],
				"metallicFactor":0,
				"roughnessFactor":0.5
			}
		},
		{
			"doubleSided":true,
			"name":"\u30de\u30c6\u30ea\u30a2\u30eb.006",
			"pbrMetallicRoughness":{
				"baseColorFactor":[
					0.2797991931438446,
					0.06857208907604218,
					0.013816368766129017,
					1
				],
				"metallicFactor":0,
				"roughnessFactor":0.5
			}
		},
		{
			"doubleSided":true,
			"name":"\u30de\u30c6\u30ea\u30a2\u30eb.007",
			"pbrMetallicRoughness":{
				"baseColorFactor":[
					1,
					0.4664124846458435,
					0.10721176862716675,
					1
				],
				"metallicFactor":0,
				"roughnessFactor":0.5
			}
		},
		{
			"doubleSided":true,
			"name":"\u30de\u30c6\u30ea\u30a2\u30eb.008",
			"pbrMetallicRoughness":{
				"baseColorFactor":[
					0.2797991931438446,
					0.06857208907604218,
					0.013816368766129017,
					1
				],
				"metallicFactor":0,
				"roughnessFactor":0.5
			}
		},
		{
			"doubleSided":true,
			"name":"\u30de\u30c6\u30ea\u30a2\u30eb.009",
			"pbrMetallicRoughness":{
				"baseColorFactor":[
					1,
					0.4664124846458435,
					0.10721176862716675,
					1
				],
				"metallicFactor":0,
				"roughnessFactor":0.5
			}
		}
	],
	"meshes":[
		{
			"name":"\u5186\u67f1",
			"primitives":[
				{
					"attributes":{
						"POSITION":0,
						"NORMAL":1,
						"TEXCOORD_0":2
					},
					"indices":3,
					"material":0
				},
				{
					"attributes":{
						"POSITION":4,
						"NORMAL":5,
						"TEXCOORD_0":6
					},
					"indices":7,
					"material":1
				}
			]
		},
		{
			"name":"\u5186\u67f1.001",
			"primitives":[
				{
					"attributes":{
						"POSITION":8,
						"NORMAL":9,
						"TEXCOORD_0":10
					},
					"indices":3,
					"material":2
				},
				{
					"attributes":{
						"POSITION":11,
						"NORMAL":12,
						"TEXCOORD_0":13
					},
					"indices":7,
					"material":3
				}
			]
		},
		{
			"name":"\u5186\u67f1.002",
			"primitives":[
				{
					"attributes":{
						"POSITION":14,
						"NORMAL":15,
						"TEXCOORD_0":16
					},
					"indices":3,
					"material":4
				},
				{
					"attributes":{
						"POSITION":17,
						"NORMAL":18,
						"TEXCOORD_0":19
					},
					"indices":7,
					"material":5
				}
			]
		},
		{
			"name":"\u5186\u67f1.003",
			"primitives":[
				{
					"attributes":{
						"POSITION":20,
						"NORMAL":21,
						"TEXCOORD_0":22
					},
					"indices":3,
					"material":6
				},
				{
					"attributes":{
						"POSITION":23,
						"NORMAL":24,
						"TEXCOORD_0":25
					},
					"indices":7,
					"material":7
				}
			]
		},
		{
			"name":"\u5186\u67f1.004",
			"primitives":[
				{
					"attributes":{
						"POSITION":26,
						"NORMAL":27,
						"TEXCOORD_0":28
					},
					"indices":3,
					"material":8
				},
				{
					"attributes":{
						"POSITION":29,
						"NORMAL":30,
						"TEXCOORD_0":31
					},
					"indices":7,
					"material":9
				}
			]
		}
	],
	"accessors":[
		{
			"bufferView":0,
			"componentType":5126,
			"count":128,
			"max":[
				1,
				1,
				1
			],
			"min":[
				-1,
				-1,
				-1
			],
			"type":"VEC3"
		},
		{
			"bufferView":1,
			"componentType":5126,
			"count":128,
			"type":"VEC3"
		},
		{
			"bufferView":2,
			"componentType":5126,
			"count":128,
			"type":"VEC2"
		},
		{
			"bufferView":3,
			"componentType":5123,
			"count":192,
			"type":"SCALAR"
		},
		{
			"bufferView":4,
			"componentType":5126,
			"count":64,
			"max":[
				1,
				1,
				1
			],
			"min":[
				-1,
				-1,
				-1
			],
			"type":"VEC3"
		},
		{
			"bufferView":5,
			"componentType":5126,
			"count":64,
			"type":"VEC3"
		},
		{
			"bufferView":6,
			"componentType":5126,
			"count":64,
			"type":"VEC2"
		},
		{
			"bufferView":7,
			"componentType":5123,
			"count":180,
			"type":"SCALAR"
		},
		{
			"bufferView":8,
			"componentType":5126,
			"count":128,
			"max":[
				1,
				1,
				1
			],
			"min":[
				-1,
				-1,
				-1
			],
			"type":"VEC3"
		},
		{
			"bufferView":9,
			"componentType":5126,
			"count":128,
			"type":"VEC3"
		},
		{
			"bufferView":10,
			"componentType":5126,
			"count":128,
			"type":"VEC2"
		},
		{
			"bufferView":11,
			"componentType":5126,
			"count":64,
			"max":[
				1,
				1,
				1
			],
			"min":[
				-1,
				-1,
				-1
			],
			"type":"VEC3"
		},
		{
			"bufferView":12,
			"componentType":5126,
			"count":64,
			"type":"VEC3"
		},
		{
			"bufferView":13,
			"componentType":5126,
			"count":64,
			"type":"VEC2"
		},
		{
			"bufferView":14,
			"componentType":5126,
			"count":128,
			"max":[
				1,
				1,
				1
			],
			"min":[
				-1,
				-1,
				-1
			],
			"type":"VEC3"
		},
		{
			"bufferView":15,
			"componentType":5126,
			"count":128,
			"type":"VEC3"
		},
		{
			"bufferView":16,
			"componentType":5126,
			"count":128,
			"type":"VEC2"
		},
		{
			"bufferView":17,
			"componentType":5126,
			"count":64,
			"max":[
				1,
				1,
				1
			],
			"min":[
				-1,
				-1,
				-1
			],
			"type":"VEC3"
		},
		{
			"bufferView":18,
			"componentType":5126,
			"count":64,
			"type":"VEC3"
		},
		{
			"bufferView":19,
			"componentType":5126,
			"count":64,
			"type":"VEC2"
		},
		{
			"bufferView":20,
			"componentType":5126,
			"count":128,
			"max":[
				1,
				1,
				1
			],
			"min":[
				-1,
				-1,
				-1
			],
			"type":"VEC3"
		},
		{
			"bufferView":21,
			"componentType":5126,
			"count":128,
			"type":"VEC3"
		},
		{
			"bufferView":22,
			"componentType":5126,
			"count":128,
			"type":"VEC2"
		},
		{
			"bufferView":23,
			"componentType":5126,
			"count":64,
			"max":[
				1,
				1,
				1
			],
			"min":[
				-1,
				-1,
				-1
			],
			"type":"VEC3"
		},
		{
			"bufferView":24,
			"componentType":5126,
			"count":64,
			"type":"VEC3"
		},
		{
			"bufferView":25,
			"componentType":5126,
			"count":64,
			"type":"VEC2"
		},
		{
			"bufferView":26,
			"componentType":5126,
			"count":128,
			"max":[
				1,
				1,
				1
			],
			"min":[
				-1,
				-1,
				-1
			],
			"type":"VEC3"
		},
		{
			"bufferView":27,
			"componentType":5126,
			"count":128,
			"type":"VEC3"
		},
		{
			"bufferView":28,
			"componentType":5126,
			"count":128,
			"type":"VEC2"
		},
		{
			"bufferView":29,
			"componentType":5126,
			"count":64,
			"max":[
				1,
				1,
				1
			],
			"min":[
				-1,
				-1,
				-1
			],
			"type":"VEC3"
		},
		{
			"bufferView":30,
			"componentType":5126,
			"count":64,
			"type":"VEC3"
		},
		{
			"bufferView":31,
			"componentType":5126,
			"count":64,
			"type":"VEC2"
		}
	],
	"bufferViews":[
		{
			"buffer":0,
			"byteLength":1536,
			"byteOffset":0,
			"target":34962
		},
		{
			"buffer":0,
			"byteLength":1536,
			"byteOffset":1536,
			"target":34962
		},
		{
			"buffer":0,
			"byteLength":1024,
			"byteOffset":3072,
			"target":34962
		},
		{
			"buffer":0,
			"byteLength":384,
			"byteOffset":4096,
			"target":34963
		},
		{
			"buffer":0,
			"byteLength":768,
			"byteOffset":4480,
			"target":34962
		},
		{
			"buffer":0,
			"byteLength":768,
			"byteOffset":5248,
			"target":34962
		},
		{
			"buffer":0,
			"byteLength":512,
			"byteOffset":6016,
			"target":34962
		},
		{
			"buffer":0,
			"byteLength":360,
			"byteOffset":6528,
			"target":34963
		},
		{
			"buffer":0,
			"byteLength":1536,
			"byteOffset":6888,
			"target":34962
		},
		{
			"buffer":0,
			"byteLength":1536,
			"byteOffset":8424,
			"target":34962
		},
		{
			"buffer":0,
			"byteLength":1024,
			"byteOffset":9960,
			"target":34962
		},
		{
			"buffer":0,
			"byteLength":768,
			"byteOffset":10984,
			"target":34962
		},
		{
			"buffer":0,
			"byteLength":768,
			"byteOffset":11752,
			"target":34962
		},
		{
			"buffer":0,
			"byteLength":512,
			"byteOffset":12520,
			"target":34962
		},
		{
			"buffer":0,
			"byteLength":1536,
			"byteOffset":13032,
			"target":34962
		},
		{
			"buffer":0,
			"byteLength":1536,
			"byteOffset":14568,
			"target":34962
		},
		{
			"buffer":0,
			"byteLength":1024,
			"byteOffset":16104,
			"target":34962
		},
		{
			"buffer":0,
			"byteLength":768,
			"byteOffset":17128,
			"target":34962
		},
		{
			"buffer":0,
			"byteLength":768,
			"byteOffset":17896,
			"target":34962
		},
		{
			"buffer":0,
			"byteLength":512,
			"byteOffset":18664,
			"target":34962
		},
		{
			"buffer":0,
			"byteLength":1536,
			"byteOffset":19176,
			"target":34962
		},
		{
			"buffer":0,
			"byteLength":1536,
			"byteOffset":20712,
			"target":34962
		},
		{
			"buffer":0,
			"byteLength":1024,
			"byteOffset":22248,
			"target":34962
		},
		{
			"buffer":0,
			"byteLength":768,
			"byteOffset":23272,
			"target":34962
		},
		{
			"buffer":0,
			"byteLength":768,
			"byteOffset":24040,
			"target":34962
		},
		{
			"buffer":0,
			"byteLength":512,
			"byteOffset":24808,
			"target":34962
		},
		{
			"buffer":0,
			"byteLength":1536,
			"byteOffset":25320,
			"target":34962
		},
		{
			"buffer":0,
			"byteLength":1536,
			"byteOffset":26856,
			"target":34962
		},
		{
			"buffer":0,
			"byteLength":1024,
			"byteOffset":28392,
			"target":34962
		},
		{
			"buffer":0,
			"byteLength":768,
			"byteOffset":29416,
			"target":34962
		},
		{
			"buffer":0,
			"byteLength":768,
			"byteOffset":30184,
			"target":34962
		},
		{
			"buffer":0,
			"byteLength":512,
			"byteOffset":30952,
			"target":34962
		}
	],
	"buffers":[
		{
			"byteLength":31464,
			"uri":"Brock.bin"
		}
	]
}
