{
	"asset":{
		"generator":"Khronos glTF Blender I/O v4.1.63",
		"version":"2.0"
	},
	"scene":0,
	"scenes":[
		{
			"name":"Scene",
			"nodes":[
				0,
				1,
				2
			]
		}
	],
	"nodes":[
		{
			"mesh":0,
			"name":"ICO\u7403.071",
			"rotation":[
				0,
				0.7071068286895752,
				0,
				0.7071068286895752
			],
			"scale":[
				2.41493821144104,
				2.0119636058807373,
				3.4157562255859375
			],
			"translation":[
				-1.8875150680541992,
				1.0195564031600952,
				9.041693687438965
			]
		},
		{
			"mesh":1,
			"name":"ICO\u7403.001",
			"rotation":[
				0,
				-0.7071068286895752,
				0,
				0.7071068286895752
			],
			"scale":[
				2.41493821144104,
				2.0119636058807373,
				3.4157562255859375
			],
			"translation":[
				-2.0174598693847656,
				1.0195564031600952,
				-0.31699371337890625
			]
		},
		{
			"mesh":2,
			"name":"ICO\u7403.002",
			"rotation":[
				0,
				0.7071068286895752,
				0,
				0.7071068286895752
			],
			"scale":[
				2.41493821144104,
				2.0119636058807373,
				3.4157562255859375
			],
			"translation":[
				-2.0146560668945312,
				1.0195564031600952,
				-9.238143920898438
			]
		}
	],
	"materials":[
		{
			"doubleSided":true,
			"name":"\u30de\u30c6\u30ea\u30a2\u30eb.017",
			"pbrMetallicRoughness":{
				"metallicFactor":0,
				"roughnessFactor":0.5
			}
		},
		{
			"doubleSided":true,
			"name":"\u30de\u30c6\u30ea\u30a2\u30eb.016",
			"pbrMetallicRoughness":{
				"metallicFactor":0,
				"roughnessFactor":0.5
			}
		},
		{
			"doubleSided":true,
			"name":"\u30de\u30c6\u30ea\u30a2\u30eb.015",
			"pbrMetallicRoughness":{
				"metallicFactor":0,
				"roughnessFactor":0.5
			}
		}
	],
	"meshes":[
		{
			"name":"ICO\u7403.072",
			"primitives":[
				{
					"attributes":{
						"POSITION":0,
						"NORMAL":1,
						"TEXCOORD_0":2
					},
					"indices":3,
					"material":0
				}
			]
		},
		{
			"name":"ICO\u7403.073",
			"primitives":[
				{
					"attributes":{
						"POSITION":4,
						"NORMAL":5,
						"TEXCOORD_0":6
					},
					"indices":3,
					"material":1
				}
			]
		},
		{
			"name":"ICO\u7403.074",
			"primitives":[
				{
					"attributes":{
						"POSITION":7,
						"NORMAL":8,
						"TEXCOORD_0":9
					},
					"indices":3,
					"material":2
				}
			]
		}
	],
	"accessors":[
		{
			"bufferView":0,
			"componentType":5126,
			"count":13758,
			"max":[
				1.1264132261276245,
				0.8246025443077087,
				1.0021506547927856
			],
			"min":[
				-1.0934267044067383,
				-1.0337876081466675,
				-1.135575532913208
			],
			"type":"VEC3"
		},
		{
			"bufferView":1,
			"componentType":5126,
			"count":13758,
			"type":"VEC3"
		},
		{
			"bufferView":2,
			"componentType":5126,
			"count":13758,
			"type":"VEC2"
		},
		{
			"bufferView":3,
			"componentType":5123,
			"count":21000,
			"type":"SCALAR"
		},
		{
			"bufferView":4,
			"componentType":5126,
			"count":13758,
			"max":[
				1.1264132261276245,
				0.8246025443077087,
				1.0021506547927856
			],
			"min":[
				-1.0934267044067383,
				-1.0337876081466675,
				-1.135575532913208
			],
			"type":"VEC3"
		},
		{
			"bufferView":5,
			"componentType":5126,
			"count":13758,
			"type":"VEC3"
		},
		{
			"bufferView":6,
			"componentType":5126,
			"count":13758,
			"type":"VEC2"
		},
		{
			"bufferView":7,
			"componentType":5126,
			"count":13758,
			"max":[
				1.1264132261276245,
				0.8246025443077087,
				1.0021506547927856
			],
			"min":[
				-1.0934267044067383,
				-1.0337876081466675,
				-1.135575532913208
			],
			"type":"VEC3"
		},
		{
			"bufferView":8,
			"componentType":5126,
			"count":13758,
			"type":"VEC3"
		},
		{
			"bufferView":9,
			"componentType":5126,
			"count":13758,
			"type":"VEC2"
		}
	],
	"bufferViews":[
		{
			"buffer":0,
			"byteLength":165096,
			"byteOffset":0,
			"target":34962
		},
		{
			"buffer":0,
			"byteLength":165096,
			"byteOffset":165096,
			"target":34962
		},
		{
			"buffer":0,
			"byteLength":110064,
			"byteOffset":330192,
			"target":34962
		},
		{
			"buffer":0,
			"byteLength":42000,
			"byteOffset":440256,
			"target":34963
		},
		{
			"buffer":0,
			"byteLength":165096,
			"byteOffset":482256,
			"target":34962
		},
		{
			"buffer":0,
			"byteLength":165096,
			"byteOffset":647352,
			"target":34962
		},
		{
			"buffer":0,
			"byteLength":110064,
			"byteOffset":812448,
			"target":34962
		},
		{
			"buffer":0,
			"byteLength":165096,
			"byteOffset":922512,
			"target":34962
		},
		{
			"buffer":0,
			"byteLength":165096,
			"byteOffset":1087608,
			"target":34962
		},
		{
			"buffer":0,
			"byteLength":110064,
			"byteOffset":1252704,
			"target":34962
		}
	],
	"buffers":[
		{
			"byteLength":1362768,
			"uri":"Brock.bin"
		}
	]
}
