{
	"asset":{
		"generator":"Khronos glTF Blender I/O v4.1.63",
		"version":"2.0"
	},
	"scene":0,
	"scenes":[
		{
			"name":"Scene",
			"nodes":[
				0,
				1
			]
		}
	],
	"nodes":[
		{
			"mesh":0,
			"name":"Cube",
			"rotation":[
				0,
				1,
				0,
				0
			],
			"scale":[
				5.63631010055542,
				0.1855785846710205,
				5.639098644256592
			]
		},
		{
			"mesh":1,
			"name":"\u30c8\u30fc\u30e9\u30b9",
			"scale":[
				6.918295860290527,
				4.538483142852783,
				6.401949405670166
			]
		}
	],
	"materials":[
		{
			"doubleSided":true,
			"name":"Material",
			"pbrMetallicRoughness":{
				"metallicFactor":0,
				"roughnessFactor":0.5
			}
		},
		{
			"doubleSided":true,
			"name":"\u30de\u30c6\u30ea\u30a2\u30eb",
			"pbrMetallicRoughness":{
				"baseColorFactor":[
					0.9077227115631104,
					1,
					0.7349567413330078,
					1
				],
				"metallicFactor":0,
				"roughnessFactor":0.5
			}
		}
	],
	"meshes":[
		{
			"name":"Cube",
			"primitives":[
				{
					"attributes":{
						"POSITION":0,
						"NORMAL":1,
						"TEXCOORD_0":2
					},
					"indices":3,
					"material":0
				}
			]
		},
		{
			"name":"\u30c8\u30fc\u30e9\u30b9",
			"primitives":[
				{
					"attributes":{
						"POSITION":4,
						"NORMAL":5,
						"TEXCOORD_0":6
					},
					"indices":7,
					"material":1
				}
			]
		}
	],
	"accessors":[
		{
			"bufferView":0,
			"componentType":5126,
			"count":24,
			"max":[
				1,
				1,
				1
			],
			"min":[
				-1,
				-1,
				-1
			],
			"type":"VEC3"
		},
		{
			"bufferView":1,
			"componentType":5126,
			"count":24,
			"type":"VEC3"
		},
		{
			"bufferView":2,
			"componentType":5126,
			"count":24,
			"type":"VEC2"
		},
		{
			"bufferView":3,
			"componentType":5123,
			"count":36,
			"type":"SCALAR"
		},
		{
			"bufferView":4,
			"componentType":5126,
			"count":143550,
			"max":[
				1.31296706199646,
				0.4341740012168884,
				1.1802159547805786
			],
			"min":[
				-1.280372977256775,
				-0.45175570249557495,
				-1.3529642820358276
			],
			"type":"VEC3"
		},
		{
			"bufferView":5,
			"componentType":5126,
			"count":143550,
			"type":"VEC3"
		},
		{
			"bufferView":6,
			"componentType":5126,
			"count":143550,
			"type":"VEC2"
		},
		{
			"bufferView":7,
			"componentType":5125,
			"count":216564,
			"type":"SCALAR"
		}
	],
	"bufferViews":[
		{
			"buffer":0,
			"byteLength":288,
			"byteOffset":0,
			"target":34962
		},
		{
			"buffer":0,
			"byteLength":288,
			"byteOffset":288,
			"target":34962
		},
		{
			"buffer":0,
			"byteLength":192,
			"byteOffset":576,
			"target":34962
		},
		{
			"buffer":0,
			"byteLength":72,
			"byteOffset":768,
			"target":34963
		},
		{
			"buffer":0,
			"byteLength":1722600,
			"byteOffset":840,
			"target":34962
		},
		{
			"buffer":0,
			"byteLength":1722600,
			"byteOffset":1723440,
			"target":34962
		},
		{
			"buffer":0,
			"byteLength":1148400,
			"byteOffset":3446040,
			"target":34962
		},
		{
			"buffer":0,
			"byteLength":866256,
			"byteOffset":4594440,
			"target":34963
		}
	],
	"buffers":[
		{
			"byteLength":5460696,
			"uri":"Board.bin"
		}
	]
}
