{
	"asset":{
		"generator":"Khronos glTF Blender I/O v4.1.63",
		"version":"2.0"
	},
	"scene":0,
	"scenes":[
		{
			"name":"Scene",
			"nodes":[
				0,
				1,
				2,
				3,
				4,
				5
			]
		}
	],
	"nodes":[
		{
			"mesh":0,
			"name":"Cube",
			"scale":[
				3.4133598804473877,
				1.762381911277771,
				5.7171196937561035
			],
			"translation":[
				0,
				1.7653948068618774,
				0
			]
		},
		{
			"mesh":1,
			"name":"\u5e73\u9762",
			"scale":[
				1,
				1,
				5.693933486938477
			],
			"translation":[
				2.3990001678466797,
				3.5499801635742188,
				0
			]
		},
		{
			"mesh":2,
			"name":"\u5186\u67f1",
			"scale":[
				0.33743083477020264,
				4.015772819519043,
				0.33743083477020264
			],
			"translation":[
				2.2983510494232178,
				7.512542247772217,
				5.419182777404785
			]
		},
		{
			"mesh":3,
			"name":"\u5186\u67f1.001",
			"scale":[
				0.33743083477020264,
				4.015772819519043,
				0.33743083477020264
			],
			"translation":[
				2.2983510494232178,
				7.512542247772217,
				-5.2481184005737305
			]
		},
		{
			"mesh":4,
			"name":"\u5e73\u9762.001",
			"rotation":[
				0,
				0,
				-0.7227067351341248,
				0.6911548376083374
			],
			"scale":[
				1,
				1,
				5.163363933563232
			],
			"translation":[
				2.3096444606781006,
				10.32336139678955,
				0
			]
		},
		{
			"mesh":5,
			"name":"\u5e73\u9762.002",
			"rotation":[
				0,
				0,
				0.6955260634422302,
				0.7185008525848389
			],
			"scale":[
				1,
				1,
				5.163363933563232
			],
			"translation":[
				2.24588680267334,
				10.32336139678955,
				0
			]
		}
	],
	"materials":[
		{
			"doubleSided":true,
			"name":"Material",
			"pbrMetallicRoughness":{
				"baseColorFactor":[
					0.800000011920929,
					0.800000011920929,
					0.800000011920929,
					1
				],
				"metallicFactor":0,
				"roughnessFactor":0.5
			}
		},
		{
			"doubleSided":true,
			"name":"\u30de\u30c6\u30ea\u30a2\u30eb",
			"pbrMetallicRoughness":{
				"baseColorFactor":[
					0.800070583820343,
					0,
					0.0037614149041473866,
					1
				],
				"metallicFactor":0,
				"roughnessFactor":0.5
			}
		}
	],
	"meshes":[
		{
			"name":"Cube",
			"primitives":[
				{
					"attributes":{
						"POSITION":0,
						"NORMAL":1,
						"TEXCOORD_0":2
					},
					"indices":3,
					"material":0
				}
			]
		},
		{
			"name":"\u5e73\u9762",
			"primitives":[
				{
					"attributes":{
						"POSITION":4,
						"NORMAL":5,
						"TEXCOORD_0":6
					},
					"indices":7,
					"material":1
				}
			]
		},
		{
			"name":"\u5186\u67f1",
			"primitives":[
				{
					"attributes":{
						"POSITION":8,
						"NORMAL":9,
						"TEXCOORD_0":10
					},
					"indices":11
				}
			]
		},
		{
			"name":"\u5186\u67f1.001",
			"primitives":[
				{
					"attributes":{
						"POSITION":12,
						"NORMAL":13,
						"TEXCOORD_0":14
					},
					"indices":11
				}
			]
		},
		{
			"name":"\u5e73\u9762.001",
			"primitives":[
				{
					"attributes":{
						"POSITION":15,
						"NORMAL":16,
						"TEXCOORD_0":17
					},
					"indices":7
				}
			]
		},
		{
			"name":"\u5e73\u9762.002",
			"primitives":[
				{
					"attributes":{
						"POSITION":18,
						"NORMAL":19,
						"TEXCOORD_0":20
					},
					"indices":7
				}
			]
		}
	],
	"accessors":[
		{
			"bufferView":0,
			"componentType":5126,
			"count":24,
			"max":[
				1,
				1,
				1
			],
			"min":[
				-1,
				-1,
				-1
			],
			"type":"VEC3"
		},
		{
			"bufferView":1,
			"componentType":5126,
			"count":24,
			"type":"VEC3"
		},
		{
			"bufferView":2,
			"componentType":5126,
			"count":24,
			"type":"VEC2"
		},
		{
			"bufferView":3,
			"componentType":5123,
			"count":36,
			"type":"SCALAR"
		},
		{
			"bufferView":4,
			"componentType":5126,
			"count":4,
			"max":[
				1,
				0,
				1
			],
			"min":[
				-1,
				0,
				-1
			],
			"type":"VEC3"
		},
		{
			"bufferView":5,
			"componentType":5126,
			"count":4,
			"type":"VEC3"
		},
		{
			"bufferView":6,
			"componentType":5126,
			"count":4,
			"type":"VEC2"
		},
		{
			"bufferView":7,
			"componentType":5123,
			"count":6,
			"type":"SCALAR"
		},
		{
			"bufferView":8,
			"componentType":5126,
			"count":192,
			"max":[
				1,
				1,
				1
			],
			"min":[
				-1,
				-1,
				-1
			],
			"type":"VEC3"
		},
		{
			"bufferView":9,
			"componentType":5126,
			"count":192,
			"type":"VEC3"
		},
		{
			"bufferView":10,
			"componentType":5126,
			"count":192,
			"type":"VEC2"
		},
		{
			"bufferView":11,
			"componentType":5123,
			"count":372,
			"type":"SCALAR"
		},
		{
			"bufferView":12,
			"componentType":5126,
			"count":192,
			"max":[
				1,
				1,
				1
			],
			"min":[
				-1,
				-1,
				-1
			],
			"type":"VEC3"
		},
		{
			"bufferView":13,
			"componentType":5126,
			"count":192,
			"type":"VEC3"
		},
		{
			"bufferView":14,
			"componentType":5126,
			"count":192,
			"type":"VEC2"
		},
		{
			"bufferView":15,
			"componentType":5126,
			"count":4,
			"max":[
				1,
				0,
				1
			],
			"min":[
				-1,
				0,
				-1
			],
			"type":"VEC3"
		},
		{
			"bufferView":16,
			"componentType":5126,
			"count":4,
			"type":"VEC3"
		},
		{
			"bufferView":17,
			"componentType":5126,
			"count":4,
			"type":"VEC2"
		},
		{
			"bufferView":18,
			"componentType":5126,
			"count":4,
			"max":[
				1,
				0,
				1
			],
			"min":[
				-1,
				0,
				-1
			],
			"type":"VEC3"
		},
		{
			"bufferView":19,
			"componentType":5126,
			"count":4,
			"type":"VEC3"
		},
		{
			"bufferView":20,
			"componentType":5126,
			"count":4,
			"type":"VEC2"
		}
	],
	"bufferViews":[
		{
			"buffer":0,
			"byteLength":288,
			"byteOffset":0,
			"target":34962
		},
		{
			"buffer":0,
			"byteLength":288,
			"byteOffset":288,
			"target":34962
		},
		{
			"buffer":0,
			"byteLength":192,
			"byteOffset":576,
			"target":34962
		},
		{
			"buffer":0,
			"byteLength":72,
			"byteOffset":768,
			"target":34963
		},
		{
			"buffer":0,
			"byteLength":48,
			"byteOffset":840,
			"target":34962
		},
		{
			"buffer":0,
			"byteLength":48,
			"byteOffset":888,
			"target":34962
		},
		{
			"buffer":0,
			"byteLength":32,
			"byteOffset":936,
			"target":34962
		},
		{
			"buffer":0,
			"byteLength":12,
			"byteOffset":968,
			"target":34963
		},
		{
			"buffer":0,
			"byteLength":2304,
			"byteOffset":980,
			"target":34962
		},
		{
			"buffer":0,
			"byteLength":2304,
			"byteOffset":3284,
			"target":34962
		},
		{
			"buffer":0,
			"byteLength":1536,
			"byteOffset":5588,
			"target":34962
		},
		{
			"buffer":0,
			"byteLength":744,
			"byteOffset":7124,
			"target":34963
		},
		{
			"buffer":0,
			"byteLength":2304,
			"byteOffset":7868,
			"target":34962
		},
		{
			"buffer":0,
			"byteLength":2304,
			"byteOffset":10172,
			"target":34962
		},
		{
			"buffer":0,
			"byteLength":1536,
			"byteOffset":12476,
			"target":34962
		},
		{
			"buffer":0,
			"byteLength":48,
			"byteOffset":14012,
			"target":34962
		},
		{
			"buffer":0,
			"byteLength":48,
			"byteOffset":14060,
			"target":34962
		},
		{
			"buffer":0,
			"byteLength":32,
			"byteOffset":14108,
			"target":34962
		},
		{
			"buffer":0,
			"byteLength":48,
			"byteOffset":14140,
			"target":34962
		},
		{
			"buffer":0,
			"byteLength":48,
			"byteOffset":14188,
			"target":34962
		},
		{
			"buffer":0,
			"byteLength":32,
			"byteOffset":14236,
			"target":34962
		}
	],
	"buffers":[
		{
			"byteLength":14268,
			"uri":"Goal.bin"
		}
	]
}
