{
	"asset":{
		"generator":"Khronos glTF Blender I/O v4.1.63",
		"version":"2.0"
	},
	"scene":0,
	"scenes":[
		{
			"name":"Scene",
			"nodes":[
				0,
				1,
				2,
				3,
				4
			]
		}
	],
	"nodes":[
		{
			"mesh":0,
			"name":"Cube",
			"scale":[
				5.395238399505615,
				3.7300503253936768,
				9.788394927978516
			],
			"translation":[
				0,
				1.7653948068618774,
				0
			]
		},
		{
			"mesh":1,
			"name":"\u5186\u67f1",
			"scale":[
				0.33743083477020264,
				4.015772819519043,
				0.33743083477020264
			],
			"translation":[
				2.2983510494232178,
				7.512542247772217,
				5.419182777404785
			]
		},
		{
			"mesh":2,
			"name":"\u5186\u67f1.001",
			"scale":[
				0.33743083477020264,
				4.015772819519043,
				0.33743083477020264
			],
			"translation":[
				2.2983510494232178,
				7.512542247772217,
				-5.2481184005737305
			]
		},
		{
			"mesh":3,
			"name":"\u5e73\u9762.001",
			"rotation":[
				0,
				0,
				-0.7227067351341248,
				0.6911548376083374
			],
			"scale":[
				1,
				1,
				5.163363933563232
			],
			"translation":[
				2.3096444606781006,
				10.32336139678955,
				0
			]
		},
		{
			"mesh":4,
			"name":"\u5e73\u9762.002",
			"rotation":[
				0.7227067351341248,
				-0.6911548376083374,
				0,
				3.0211339208108257e-08
			],
			"scale":[
				1,
				1,
				5.163363933563232
			],
			"translation":[
				2.2165558338165283,
				10.32336139678955,
				0
			]
		}
	],
	"materials":[
		{
			"doubleSided":true,
			"name":"Material",
			"pbrMetallicRoughness":{
				"baseColorFactor":[
					0.800000011920929,
					0.800000011920929,
					0.800000011920929,
					1
				],
				"metallicFactor":0,
				"roughnessFactor":0.5
			}
		},
		{
			"doubleSided":true,
			"name":"\u30de\u30c6\u30ea\u30a2\u30eb.001",
			"pbrMetallicRoughness":{
				"baseColorTexture":{
					"index":0
				},
				"metallicFactor":0,
				"roughnessFactor":0.5
			}
		},
		{
			"doubleSided":true,
			"name":"\u30de\u30c6\u30ea\u30a2\u30eb.002",
			"pbrMetallicRoughness":{
				"baseColorTexture":{
					"index":1
				},
				"metallicFactor":0,
				"roughnessFactor":0.5
			}
		}
	],
	"meshes":[
		{
			"name":"Cube",
			"primitives":[
				{
					"attributes":{
						"POSITION":0,
						"NORMAL":1,
						"TEXCOORD_0":2
					},
					"indices":3,
					"material":0
				}
			]
		},
		{
			"name":"\u5186\u67f1",
			"primitives":[
				{
					"attributes":{
						"POSITION":4,
						"NORMAL":5,
						"TEXCOORD_0":6
					},
					"indices":7
				}
			]
		},
		{
			"name":"\u5186\u67f1.001",
			"primitives":[
				{
					"attributes":{
						"POSITION":8,
						"NORMAL":9,
						"TEXCOORD_0":10
					},
					"indices":7
				}
			]
		},
		{
			"name":"\u5e73\u9762.001",
			"primitives":[
				{
					"attributes":{
						"POSITION":11,
						"NORMAL":12,
						"TEXCOORD_0":13
					},
					"indices":14,
					"material":1
				}
			]
		},
		{
			"name":"\u5e73\u9762.002",
			"primitives":[
				{
					"attributes":{
						"POSITION":15,
						"NORMAL":16,
						"TEXCOORD_0":17
					},
					"indices":14,
					"material":2
				}
			]
		}
	],
	"textures":[
		{
			"sampler":0,
			"source":0
		},
		{
			"sampler":0,
			"source":0
		}
	],
	"images":[
		{
			"mimeType":"image/png",
			"name":"goal",
			"uri":"goal.png"
		}
	],
	"accessors":[
		{
			"bufferView":0,
			"componentType":5126,
			"count":436,
			"max":[
				1.0056027173995972,
				0.4670637845993042,
				0.7769840955734253
			],
			"min":[
				-0.984445333480835,
				-0.797604501247406,
				-0.9859564304351807
			],
			"type":"VEC3"
		},
		{
			"bufferView":1,
			"componentType":5126,
			"count":436,
			"type":"VEC3"
		},
		{
			"bufferView":2,
			"componentType":5126,
			"count":436,
			"type":"VEC2"
		},
		{
			"bufferView":3,
			"componentType":5123,
			"count":2052,
			"type":"SCALAR"
		},
		{
			"bufferView":4,
			"componentType":5126,
			"count":192,
			"max":[
				1,
				1,
				1
			],
			"min":[
				-1,
				-1,
				-1
			],
			"type":"VEC3"
		},
		{
			"bufferView":5,
			"componentType":5126,
			"count":192,
			"type":"VEC3"
		},
		{
			"bufferView":6,
			"componentType":5126,
			"count":192,
			"type":"VEC2"
		},
		{
			"bufferView":7,
			"componentType":5123,
			"count":372,
			"type":"SCALAR"
		},
		{
			"bufferView":8,
			"componentType":5126,
			"count":192,
			"max":[
				1,
				1,
				1
			],
			"min":[
				-1,
				-1,
				-1
			],
			"type":"VEC3"
		},
		{
			"bufferView":9,
			"componentType":5126,
			"count":192,
			"type":"VEC3"
		},
		{
			"bufferView":10,
			"componentType":5126,
			"count":192,
			"type":"VEC2"
		},
		{
			"bufferView":11,
			"componentType":5126,
			"count":4,
			"max":[
				1,
				0,
				1
			],
			"min":[
				-1,
				0,
				-1
			],
			"type":"VEC3"
		},
		{
			"bufferView":12,
			"componentType":5126,
			"count":4,
			"type":"VEC3"
		},
		{
			"bufferView":13,
			"componentType":5126,
			"count":4,
			"type":"VEC2"
		},
		{
			"bufferView":14,
			"componentType":5123,
			"count":6,
			"type":"SCALAR"
		},
		{
			"bufferView":15,
			"componentType":5126,
			"count":4,
			"max":[
				1,
				0,
				1
			],
			"min":[
				-1,
				0,
				-1
			],
			"type":"VEC3"
		},
		{
			"bufferView":16,
			"componentType":5126,
			"count":4,
			"type":"VEC3"
		},
		{
			"bufferView":17,
			"componentType":5126,
			"count":4,
			"type":"VEC2"
		}
	],
	"bufferViews":[
		{
			"buffer":0,
			"byteLength":5232,
			"byteOffset":0,
			"target":34962
		},
		{
			"buffer":0,
			"byteLength":5232,
			"byteOffset":5232,
			"target":34962
		},
		{
			"buffer":0,
			"byteLength":3488,
			"byteOffset":10464,
			"target":34962
		},
		{
			"buffer":0,
			"byteLength":4104,
			"byteOffset":13952,
			"target":34963
		},
		{
			"buffer":0,
			"byteLength":2304,
			"byteOffset":18056,
			"target":34962
		},
		{
			"buffer":0,
			"byteLength":2304,
			"byteOffset":20360,
			"target":34962
		},
		{
			"buffer":0,
			"byteLength":1536,
			"byteOffset":22664,
			"target":34962
		},
		{
			"buffer":0,
			"byteLength":744,
			"byteOffset":24200,
			"target":34963
		},
		{
			"buffer":0,
			"byteLength":2304,
			"byteOffset":24944,
			"target":34962
		},
		{
			"buffer":0,
			"byteLength":2304,
			"byteOffset":27248,
			"target":34962
		},
		{
			"buffer":0,
			"byteLength":1536,
			"byteOffset":29552,
			"target":34962
		},
		{
			"buffer":0,
			"byteLength":48,
			"byteOffset":31088,
			"target":34962
		},
		{
			"buffer":0,
			"byteLength":48,
			"byteOffset":31136,
			"target":34962
		},
		{
			"buffer":0,
			"byteLength":32,
			"byteOffset":31184,
			"target":34962
		},
		{
			"buffer":0,
			"byteLength":12,
			"byteOffset":31216,
			"target":34963
		},
		{
			"buffer":0,
			"byteLength":48,
			"byteOffset":31228,
			"target":34962
		},
		{
			"buffer":0,
			"byteLength":48,
			"byteOffset":31276,
			"target":34962
		},
		{
			"buffer":0,
			"byteLength":32,
			"byteOffset":31324,
			"target":34962
		}
	],
	"samplers":[
		{
			"magFilter":9729,
			"minFilter":9987
		}
	],
	"buffers":[
		{
			"byteLength":31356,
			"uri":"Goal.bin"
		}
	]
}
