{
	"asset":{
		"generator":"Khronos glTF Blender I/O v4.1.62",
		"version":"2.0"
	},
	"scene":0,
	"scenes":[
		{
			"name":"Scene",
			"nodes":[
				0,
				1
			]
		}
	],
	"nodes":[
		{
			"mesh":0,
			"name":"\u7acb\u65b9\u4f53",
			"scale":[
				2.442103862762451,
				0.4939301908016205,
				2.983539581298828
			],
			"translation":[
				-14.579364776611328,
				-0.4673267900943756,
				0
			]
		},
		{
			"mesh":1,
			"name":"\u7acb\u65b9\u4f53.001",
			"scale":[
				13.118368148803711,
				0.4939301908016205,
				1.2058151960372925
			],
			"translation":[
				0.9525470733642578,
				-0.4673267900943756,
				0
			]
		}
	],
	"meshes":[
		{
			"name":"\u7acb\u65b9\u4f53",
			"primitives":[
				{
					"attributes":{
						"POSITION":0,
						"NORMAL":1,
						"TEXCOORD_0":2
					},
					"indices":3
				}
			]
		},
		{
			"name":"\u7acb\u65b9\u4f53.001",
			"primitives":[
				{
					"attributes":{
						"POSITION":4,
						"NORMAL":5,
						"TEXCOORD_0":6
					},
					"indices":7
				}
			]
		}
	],
	"accessors":[
		{
			"bufferView":0,
			"componentType":5126,
			"count":24,
			"max":[
				1,
				1,
				1
			],
			"min":[
				-1,
				-1,
				-1
			],
			"type":"VEC3"
		},
		{
			"bufferView":1,
			"componentType":5126,
			"count":24,
			"type":"VEC3"
		},
		{
			"bufferView":2,
			"componentType":5126,
			"count":24,
			"type":"VEC2"
		},
		{
			"bufferView":3,
			"componentType":5123,
			"count":36,
			"type":"SCALAR"
		},
		{
			"bufferView":4,
			"componentType":5126,
			"count":604,
			"max":[
				0.9999996423721313,
				0.9999998211860657,
				0.9999998211860657
			],
			"min":[
				-0.9999996423721313,
				-1,
				-0.9999998211860657
			],
			"type":"VEC3"
		},
		{
			"bufferView":5,
			"componentType":5126,
			"count":604,
			"type":"VEC3"
		},
		{
			"bufferView":6,
			"componentType":5126,
			"count":604,
			"type":"VEC2"
		},
		{
			"bufferView":7,
			"componentType":5123,
			"count":1236,
			"type":"SCALAR"
		}
	],
	"bufferViews":[
		{
			"buffer":0,
			"byteLength":288,
			"byteOffset":0,
			"target":34962
		},
		{
			"buffer":0,
			"byteLength":288,
			"byteOffset":288,
			"target":34962
		},
		{
			"buffer":0,
			"byteLength":192,
			"byteOffset":576,
			"target":34962
		},
		{
			"buffer":0,
			"byteLength":72,
			"byteOffset":768,
			"target":34963
		},
		{
			"buffer":0,
			"byteLength":7248,
			"byteOffset":840,
			"target":34962
		},
		{
			"buffer":0,
			"byteLength":7248,
			"byteOffset":8088,
			"target":34962
		},
		{
			"buffer":0,
			"byteLength":4832,
			"byteOffset":15336,
			"target":34962
		},
		{
			"buffer":0,
			"byteLength":2472,
			"byteOffset":20168,
			"target":34963
		}
	],
	"buffers":[
		{
			"byteLength":22640,
			"uri":"Road.bin"
		}
	]
}
