{
	"asset":{
		"generator":"Khronos glTF Blender I/O v4.1.63",
		"version":"2.0"
	},
	"scene":0,
	"scenes":[
		{
			"name":"Scene",
			"nodes":[
				0,
				1,
				2,
				3,
				4
			]
		}
	],
	"nodes":[
		{
			"mesh":0,
			"name":"\u5186\u67f1",
			"scale":[
				0.33743083477020264,
				4.015772819519043,
				0.33743083477020264
			],
			"translation":[
				2.2983510494232178,
				7.512542247772217,
				5.419182777404785
			]
		},
		{
			"mesh":1,
			"name":"\u5186\u67f1.001",
			"scale":[
				0.33743083477020264,
				4.015772819519043,
				0.33743083477020264
			],
			"translation":[
				2.2983510494232178,
				7.512542247772217,
				-5.2481184005737305
			]
		},
		{
			"mesh":2,
			"name":"\u5e73\u9762.001",
			"rotation":[
				0,
				0,
				-0.7227067351341248,
				0.6911548376083374
			],
			"scale":[
				1,
				1,
				5.163363933563232
			],
			"translation":[
				2.3096444606781006,
				10.32336139678955,
				0
			]
		},
		{
			"mesh":3,
			"name":"\u5e73\u9762.002",
			"rotation":[
				0,
				0,
				0.6955260634422302,
				0.7185008525848389
			],
			"scale":[
				1,
				1,
				5.163363933563232
			],
			"translation":[
				2.24588680267334,
				10.32336139678955,
				0
			]
		},
		{
			"mesh":4,
			"name":"Cube.001",
			"scale":[
				5.744502067565918,
				4.872550964355469,
				10.814911842346191
			],
			"translation":[
				-0.664523720741272,
				1.4153014421463013,
				0.03543800115585327
			]
		}
	],
	"materials":[
		{
			"doubleSided":true,
			"name":"\u30de\u30c6\u30ea\u30a2\u30eb.002",
			"pbrMetallicRoughness":{
				"metallicFactor":0,
				"roughnessFactor":0.5
			}
		},
		{
			"doubleSided":true,
			"name":"\u30de\u30c6\u30ea\u30a2\u30eb.001",
			"pbrMetallicRoughness":{
				"metallicFactor":0,
				"roughnessFactor":0.5
			}
		},
		{
			"doubleSided":true,
			"name":"\u30de\u30c6\u30ea\u30a2\u30eb.003",
			"pbrMetallicRoughness":{
				"baseColorTexture":{
					"index":0
				},
				"metallicFactor":0,
				"roughnessFactor":0.5
			}
		},
		{
			"doubleSided":true,
			"name":"\u30de\u30c6\u30ea\u30a2\u30eb.004",
			"pbrMetallicRoughness":{
				"baseColorTexture":{
					"index":1
				},
				"metallicFactor":0,
				"roughnessFactor":0.5
			}
		},
		{
			"doubleSided":true,
			"name":"Material.001",
			"pbrMetallicRoughness":{
				"metallicFactor":0,
				"roughnessFactor":0.5
			}
		}
	],
	"meshes":[
		{
			"name":"\u5186\u67f1",
			"primitives":[
				{
					"attributes":{
						"POSITION":0,
						"NORMAL":1,
						"TEXCOORD_0":2
					},
					"indices":3,
					"material":0
				}
			]
		},
		{
			"name":"\u5186\u67f1.001",
			"primitives":[
				{
					"attributes":{
						"POSITION":4,
						"NORMAL":5,
						"TEXCOORD_0":6
					},
					"indices":3,
					"material":1
				}
			]
		},
		{
			"name":"\u5e73\u9762.001",
			"primitives":[
				{
					"attributes":{
						"POSITION":7,
						"NORMAL":8,
						"TEXCOORD_0":9
					},
					"indices":10,
					"material":2
				}
			]
		},
		{
			"name":"\u5e73\u9762.002",
			"primitives":[
				{
					"attributes":{
						"POSITION":11,
						"NORMAL":12,
						"TEXCOORD_0":13
					},
					"indices":10,
					"material":3
				}
			]
		},
		{
			"name":"Cube.001",
			"primitives":[
				{
					"attributes":{
						"POSITION":14,
						"NORMAL":15,
						"TEXCOORD_0":16
					},
					"indices":17,
					"material":4
				}
			]
		}
	],
	"textures":[
		{
			"sampler":0,
			"source":0
		},
		{
			"sampler":0,
			"source":0
		}
	],
	"images":[
		{
			"mimeType":"image/png",
			"name":"start",
			"uri":"start.png"
		}
	],
	"accessors":[
		{
			"bufferView":0,
			"componentType":5126,
			"count":192,
			"max":[
				1,
				1,
				1
			],
			"min":[
				-1,
				-1,
				-1
			],
			"type":"VEC3"
		},
		{
			"bufferView":1,
			"componentType":5126,
			"count":192,
			"type":"VEC3"
		},
		{
			"bufferView":2,
			"componentType":5126,
			"count":192,
			"type":"VEC2"
		},
		{
			"bufferView":3,
			"componentType":5123,
			"count":372,
			"type":"SCALAR"
		},
		{
			"bufferView":4,
			"componentType":5126,
			"count":192,
			"max":[
				1,
				1,
				1
			],
			"min":[
				-1,
				-1,
				-1
			],
			"type":"VEC3"
		},
		{
			"bufferView":5,
			"componentType":5126,
			"count":192,
			"type":"VEC3"
		},
		{
			"bufferView":6,
			"componentType":5126,
			"count":192,
			"type":"VEC2"
		},
		{
			"bufferView":7,
			"componentType":5126,
			"count":4,
			"max":[
				1,
				0,
				1
			],
			"min":[
				-1,
				0,
				-1
			],
			"type":"VEC3"
		},
		{
			"bufferView":8,
			"componentType":5126,
			"count":4,
			"type":"VEC3"
		},
		{
			"bufferView":9,
			"componentType":5126,
			"count":4,
			"type":"VEC2"
		},
		{
			"bufferView":10,
			"componentType":5123,
			"count":6,
			"type":"SCALAR"
		},
		{
			"bufferView":11,
			"componentType":5126,
			"count":4,
			"max":[
				1,
				0,
				1
			],
			"min":[
				-1,
				0,
				-1
			],
			"type":"VEC3"
		},
		{
			"bufferView":12,
			"componentType":5126,
			"count":4,
			"type":"VEC3"
		},
		{
			"bufferView":13,
			"componentType":5126,
			"count":4,
			"type":"VEC2"
		},
		{
			"bufferView":14,
			"componentType":5126,
			"count":413,
			"max":[
				0.9748243093490601,
				0.44006770849227905,
				0.7976887822151184
			],
			"min":[
				-0.983778178691864,
				-0.7685984373092651,
				-0.948119044303894
			],
			"type":"VEC3"
		},
		{
			"bufferView":15,
			"componentType":5126,
			"count":413,
			"type":"VEC3"
		},
		{
			"bufferView":16,
			"componentType":5126,
			"count":413,
			"type":"VEC2"
		},
		{
			"bufferView":17,
			"componentType":5123,
			"count":1968,
			"type":"SCALAR"
		}
	],
	"bufferViews":[
		{
			"buffer":0,
			"byteLength":2304,
			"byteOffset":0,
			"target":34962
		},
		{
			"buffer":0,
			"byteLength":2304,
			"byteOffset":2304,
			"target":34962
		},
		{
			"buffer":0,
			"byteLength":1536,
			"byteOffset":4608,
			"target":34962
		},
		{
			"buffer":0,
			"byteLength":744,
			"byteOffset":6144,
			"target":34963
		},
		{
			"buffer":0,
			"byteLength":2304,
			"byteOffset":6888,
			"target":34962
		},
		{
			"buffer":0,
			"byteLength":2304,
			"byteOffset":9192,
			"target":34962
		},
		{
			"buffer":0,
			"byteLength":1536,
			"byteOffset":11496,
			"target":34962
		},
		{
			"buffer":0,
			"byteLength":48,
			"byteOffset":13032,
			"target":34962
		},
		{
			"buffer":0,
			"byteLength":48,
			"byteOffset":13080,
			"target":34962
		},
		{
			"buffer":0,
			"byteLength":32,
			"byteOffset":13128,
			"target":34962
		},
		{
			"buffer":0,
			"byteLength":12,
			"byteOffset":13160,
			"target":34963
		},
		{
			"buffer":0,
			"byteLength":48,
			"byteOffset":13172,
			"target":34962
		},
		{
			"buffer":0,
			"byteLength":48,
			"byteOffset":13220,
			"target":34962
		},
		{
			"buffer":0,
			"byteLength":32,
			"byteOffset":13268,
			"target":34962
		},
		{
			"buffer":0,
			"byteLength":4956,
			"byteOffset":13300,
			"target":34962
		},
		{
			"buffer":0,
			"byteLength":4956,
			"byteOffset":18256,
			"target":34962
		},
		{
			"buffer":0,
			"byteLength":3304,
			"byteOffset":23212,
			"target":34962
		},
		{
			"buffer":0,
			"byteLength":3936,
			"byteOffset":26516,
			"target":34963
		}
	],
	"samplers":[
		{
			"magFilter":9729,
			"minFilter":9987
		}
	],
	"buffers":[
		{
			"byteLength":30452,
			"uri":"Start.bin"
		}
	]
}
