{
	"asset":{
		"generator":"Khronos glTF Blender I/O v4.1.63",
		"version":"2.0"
	},
	"scene":0,
	"scenes":[
		{
			"name":"Scene",
			"nodes":[
				0,
				1,
				2,
				3,
				4,
				5
			]
		}
	],
	"nodes":[
		{
			"mesh":0,
			"name":"\u30c8\u30fc\u30e9\u30b9",
			"scale":[
				5.0334343910217285,
				5.775382041931152,
				5.0334343910217285
			],
			"translation":[
				0,
				0.7545522451400757,
				-0.4285770356655121
			]
		},
		{
			"mesh":1,
			"name":"\u5186\u67f1",
			"scale":[
				4.519937515258789,
				0.11454053968191147,
				4.519937515258789
			],
			"translation":[
				0,
				1.5137966871261597,
				0
			]
		},
		{
			"name":"\u5186",
			"scale":[
				3.5822718143463135,
				1,
				3.5822718143463135
			],
			"translation":[
				0,
				1.6318519115447998,
				0
			]
		},
		{
			"name":"\u5186.001",
			"scale":[
				2.719775676727295,
				1,
				2.719775676727295
			],
			"translation":[
				0,
				1.6318519115447998,
				0
			]
		},
		{
			"name":"\u5186.002",
			"scale":[
				1.6518409252166748,
				1,
				1.6518409252166748
			],
			"translation":[
				0,
				1.6318519115447998,
				0
			]
		},
		{
			"name":"\u5186.003",
			"scale":[
				0.9996488094329834,
				1,
				0.9996488094329834
			],
			"translation":[
				0,
				1.6318519115447998,
				0
			]
		}
	],
	"materials":[
		{
			"doubleSided":true,
			"name":"\u30de\u30c6\u30ea\u30a2\u30eb",
			"pbrMetallicRoughness":{
				"metallicFactor":0,
				"roughnessFactor":0.5
			}
		}
	],
	"meshes":[
		{
			"name":"\u30c8\u30fc\u30e9\u30b9",
			"primitives":[
				{
					"attributes":{
						"POSITION":0,
						"NORMAL":1,
						"TEXCOORD_0":2
					},
					"indices":3,
					"material":0
				}
			]
		},
		{
			"name":"\u5186\u67f1",
			"primitives":[
				{
					"attributes":{
						"POSITION":4,
						"NORMAL":5,
						"TEXCOORD_0":6
					},
					"indices":7
				}
			]
		}
	],
	"accessors":[
		{
			"bufferView":0,
			"componentType":5126,
			"count":37345,
			"max":[
				1.365748405456543,
				0.48255300521850586,
				1.16421639919281
			],
			"min":[
				-1.3449933528900146,
				-0.4195025861263275,
				-1.3871076107025146
			],
			"type":"VEC3"
		},
		{
			"bufferView":1,
			"componentType":5126,
			"count":37345,
			"type":"VEC3"
		},
		{
			"bufferView":2,
			"componentType":5126,
			"count":37345,
			"type":"VEC2"
		},
		{
			"bufferView":3,
			"componentType":5123,
			"count":221184,
			"type":"SCALAR"
		},
		{
			"bufferView":4,
			"componentType":5126,
			"count":192,
			"max":[
				1,
				1,
				1
			],
			"min":[
				-1,
				-1,
				-1
			],
			"type":"VEC3"
		},
		{
			"bufferView":5,
			"componentType":5126,
			"count":192,
			"type":"VEC3"
		},
		{
			"bufferView":6,
			"componentType":5126,
			"count":192,
			"type":"VEC2"
		},
		{
			"bufferView":7,
			"componentType":5123,
			"count":372,
			"type":"SCALAR"
		}
	],
	"bufferViews":[
		{
			"buffer":0,
			"byteLength":448140,
			"byteOffset":0,
			"target":34962
		},
		{
			"buffer":0,
			"byteLength":448140,
			"byteOffset":448140,
			"target":34962
		},
		{
			"buffer":0,
			"byteLength":298760,
			"byteOffset":896280,
			"target":34962
		},
		{
			"buffer":0,
			"byteLength":442368,
			"byteOffset":1195040,
			"target":34963
		},
		{
			"buffer":0,
			"byteLength":2304,
			"byteOffset":1637408,
			"target":34962
		},
		{
			"buffer":0,
			"byteLength":2304,
			"byteOffset":1639712,
			"target":34962
		},
		{
			"buffer":0,
			"byteLength":1536,
			"byteOffset":1642016,
			"target":34962
		},
		{
			"buffer":0,
			"byteLength":744,
			"byteOffset":1643552,
			"target":34963
		}
	],
	"buffers":[
		{
			"byteLength":1644296,
			"uri":"Trampoline.bin"
		}
	]
}
