{
	"asset":{
		"generator":"Khronos glTF Blender I/O v4.1.63",
		"version":"2.0"
	},
	"scene":0,
	"scenes":[
		{
			"name":"Scene",
			"nodes":[
				0,
				1,
				2,
				3,
				4,
				5
			]
		}
	],
	"nodes":[
		{
			"mesh":0,
			"name":"\u30c8\u30fc\u30e9\u30b9",
			"scale":[
				5.0334343910217285,
				3.3670079708099365,
				5.0334343910217285
			],
			"translation":[
				0,
				0.7545522451400757,
				0
			]
		},
		{
			"mesh":1,
			"name":"\u5186\u67f1",
			"scale":[
				4.519937515258789,
				0.09299808740615845,
				4.519937515258789
			],
			"translation":[
				0,
				1.5137966871261597,
				0
			]
		},
		{
			"name":"\u5186",
			"scale":[
				3.5822718143463135,
				1,
				3.5822718143463135
			],
			"translation":[
				0,
				1.6318519115447998,
				0
			]
		},
		{
			"name":"\u5186.001",
			"scale":[
				2.719775676727295,
				1,
				2.719775676727295
			],
			"translation":[
				0,
				1.6318519115447998,
				0
			]
		},
		{
			"name":"\u5186.002",
			"scale":[
				1.6518409252166748,
				1,
				1.6518409252166748
			],
			"translation":[
				0,
				1.6318519115447998,
				0
			]
		},
		{
			"name":"\u5186.003",
			"scale":[
				0.9996488094329834,
				1,
				0.9996488094329834
			],
			"translation":[
				0,
				1.6318519115447998,
				0
			]
		}
	],
	"meshes":[
		{
			"name":"\u30c8\u30fc\u30e9\u30b9",
			"primitives":[
				{
					"attributes":{
						"POSITION":0,
						"NORMAL":1,
						"TEXCOORD_0":2
					},
					"indices":3
				}
			]
		},
		{
			"name":"\u5186\u67f1",
			"primitives":[
				{
					"attributes":{
						"POSITION":4,
						"NORMAL":5,
						"TEXCOORD_0":6
					},
					"indices":7
				}
			]
		}
	],
	"accessors":[
		{
			"bufferView":0,
			"componentType":5126,
			"count":2304,
			"max":[
				1.25,
				0.25,
				1.25
			],
			"min":[
				-1.25,
				-0.25,
				-1.25
			],
			"type":"VEC3"
		},
		{
			"bufferView":1,
			"componentType":5126,
			"count":2304,
			"type":"VEC3"
		},
		{
			"bufferView":2,
			"componentType":5126,
			"count":2304,
			"type":"VEC2"
		},
		{
			"bufferView":3,
			"componentType":5123,
			"count":3456,
			"type":"SCALAR"
		},
		{
			"bufferView":4,
			"componentType":5126,
			"count":192,
			"max":[
				1,
				1,
				1
			],
			"min":[
				-1,
				-1,
				-1
			],
			"type":"VEC3"
		},
		{
			"bufferView":5,
			"componentType":5126,
			"count":192,
			"type":"VEC3"
		},
		{
			"bufferView":6,
			"componentType":5126,
			"count":192,
			"type":"VEC2"
		},
		{
			"bufferView":7,
			"componentType":5123,
			"count":372,
			"type":"SCALAR"
		}
	],
	"bufferViews":[
		{
			"buffer":0,
			"byteLength":27648,
			"byteOffset":0,
			"target":34962
		},
		{
			"buffer":0,
			"byteLength":27648,
			"byteOffset":27648,
			"target":34962
		},
		{
			"buffer":0,
			"byteLength":18432,
			"byteOffset":55296,
			"target":34962
		},
		{
			"buffer":0,
			"byteLength":6912,
			"byteOffset":73728,
			"target":34963
		},
		{
			"buffer":0,
			"byteLength":2304,
			"byteOffset":80640,
			"target":34962
		},
		{
			"buffer":0,
			"byteLength":2304,
			"byteOffset":82944,
			"target":34962
		},
		{
			"buffer":0,
			"byteLength":1536,
			"byteOffset":85248,
			"target":34962
		},
		{
			"buffer":0,
			"byteLength":744,
			"byteOffset":86784,
			"target":34963
		}
	],
	"buffers":[
		{
			"byteLength":87528,
			"uri":"Trampoline.bin"
		}
	]
}
