{
	"asset":{
		"generator":"Khronos glTF Blender I/O v4.1.63",
		"version":"2.0"
	},
	"scene":0,
	"scenes":[
		{
			"name":"Scene",
			"nodes":[
				0,
				1,
				2,
				3,
				4,
				5,
				6,
				7
			]
		}
	],
	"nodes":[
		{
			"mesh":0,
			"name":"\u30c8\u30fc\u30e9\u30b9",
			"rotation":[
				0.08715574443340302,
				0,
				0,
				0.9961947202682495
			],
			"scale":[
				0.7039063572883606,
				1.3947036266326904,
				0.7421149611473083
			],
			"translation":[
				0,
				0.4189019203186035,
				-0.059407711029052734
			]
		},
		{
			"mesh":1,
			"name":"\u30c8\u30fc\u30e9\u30b9.001",
			"rotation":[
				0.08418598771095276,
				0.25783419609069824,
				-0.022557567805051804,
				0.9622501730918884
			],
			"scale":[
				0.9225466251373291,
				1.3947036266326904,
				0.9726231694221497
			],
			"translation":[
				0,
				1.3492662906646729,
				-0.059407711029052734
			]
		},
		{
			"mesh":2,
			"name":"\u30c8\u30fc\u30e9\u30b9.002",
			"rotation":[
				0.07547909021377563,
				0.49809741973876953,
				-0.04357787221670151,
				0.8627300262451172
			],
			"scale":[
				1.2502697706222534,
				1.3947036266326904,
				1.3181356191635132
			],
			"translation":[
				0,
				2.2856967449188232,
				-0.059407711029052734
			]
		},
		{
			"mesh":3,
			"name":"\u30c8\u30fc\u30e9\u30b9.003",
			"rotation":[
				0.06162841618061066,
				0.704416036605835,
				-0.06162842735648155,
				0.704416036605835
			],
			"scale":[
				1.658384919166565,
				1.3947036266326904,
				1.7484033107757568
			],
			"translation":[
				0,
				3.25386118888855,
				-0.059407711029052734
			]
		},
		{
			"mesh":4,
			"name":"\u30c8\u30fc\u30e9\u30b9.004",
			"rotation":[
				0.04357787221670151,
				0.8627300262451172,
				-0.07547909021377563,
				0.49809736013412476
			],
			"scale":[
				2.1156368255615234,
				1.3947036266326904,
				2.2304751873016357
			],
			"translation":[
				0,
				4.3848981857299805,
				-0.059407711029052734
			]
		},
		{
			"mesh":5,
			"name":"\u30c8\u30fc\u30e9\u30b9.005",
			"rotation":[
				0.022557571530342102,
				0.9622501730918884,
				-0.08418598026037216,
				0.25783419609069824
			],
			"scale":[
				2.587653398513794,
				1.9284048080444336,
				2.7281134128570557
			],
			"translation":[
				0,
				5.755112171173096,
				-0.059407711029052734
			]
		},
		{
			"mesh":6,
			"name":"\u30c8\u30fc\u30e9\u30b9.006",
			"rotation":[
				0,
				-0.9961947202682495,
				0.08715574443340302,
				4.354505378501017e-08
			],
			"scale":[
				3.2770931720733643,
				2.3837873935699463,
				3.4619455337524414
			],
			"translation":[
				0,
				7.276095390319824,
				-0.059407711029052734
			]
		},
		{
			"mesh":7,
			"name":"\u30c8\u30fc\u30e9\u30b9.007",
			"rotation":[
				0.022557567805051804,
				-0.962250292301178,
				0.08418598771095276,
				0.25783419609069824
			],
			"scale":[
				3.960602283477783,
				2.752126455307007,
				4.18939208984375
			],
			"translation":[
				0,
				8.80712890625,
				-0.059407711029052734
			]
		}
	],
	"materials":[
		{
			"doubleSided":true,
			"name":"\u30de\u30c6\u30ea\u30a2\u30eb",
			"pbrMetallicRoughness":{
				"baseColorFactor":[
					0.20000000298023224,
					0.20000000298023224,
					0.20000000298023224,
					1
				],
				"metallicFactor":0,
				"roughnessFactor":0.5
			}
		},
		{
			"doubleSided":true,
			"name":"\u30de\u30c6\u30ea\u30a2\u30eb.001",
			"pbrMetallicRoughness":{
				"baseColorFactor":[
					0.30000001192092896,
					0.30000001192092896,
					0.30000001192092896,
					1
				],
				"metallicFactor":0,
				"roughnessFactor":0.5
			}
		},
		{
			"doubleSided":true,
			"name":"\u30de\u30c6\u30ea\u30a2\u30eb.002",
			"pbrMetallicRoughness":{
				"baseColorFactor":[
					0.30000001192092896,
					0.30000001192092896,
					0.30000001192092896,
					1
				],
				"metallicFactor":0,
				"roughnessFactor":0.5
			}
		},
		{
			"doubleSided":true,
			"name":"\u30de\u30c6\u30ea\u30a2\u30eb.006",
			"pbrMetallicRoughness":{
				"baseColorFactor":[
					0.4000000059604645,
					0.4000000059604645,
					0.4000000059604645,
					1
				],
				"metallicFactor":0,
				"roughnessFactor":0.5
			}
		},
		{
			"doubleSided":true,
			"name":"\u30de\u30c6\u30ea\u30a2\u30eb.005",
			"pbrMetallicRoughness":{
				"baseColorFactor":[
					0.5,
					0.5,
					0.5,
					1
				],
				"metallicFactor":0,
				"roughnessFactor":0.5
			}
		},
		{
			"doubleSided":true,
			"name":"\u30de\u30c6\u30ea\u30a2\u30eb.004",
			"pbrMetallicRoughness":{
				"baseColorFactor":[
					0.6000000238418579,
					0.6000000238418579,
					0.6000000238418579,
					1
				],
				"metallicFactor":0,
				"roughnessFactor":0.5
			}
		},
		{
			"doubleSided":true,
			"name":"\u30de\u30c6\u30ea\u30a2\u30eb.003",
			"pbrMetallicRoughness":{
				"baseColorFactor":[
					0.699999988079071,
					0.699999988079071,
					0.699999988079071,
					1
				],
				"metallicFactor":0,
				"roughnessFactor":0.5
			}
		},
		{
			"doubleSided":true,
			"name":"\u30de\u30c6\u30ea\u30a2\u30eb.007",
			"pbrMetallicRoughness":{
				"baseColorFactor":[
					0.800000011920929,
					0.800000011920929,
					0.800000011920929,
					1
				],
				"metallicFactor":0,
				"roughnessFactor":0.5
			}
		}
	],
	"meshes":[
		{
			"name":"\u30c8\u30fc\u30e9\u30b9",
			"primitives":[
				{
					"attributes":{
						"POSITION":0,
						"NORMAL":1,
						"TEXCOORD_0":2
					},
					"indices":3,
					"material":0
				}
			]
		},
		{
			"name":"\u30c8\u30fc\u30e9\u30b9.001",
			"primitives":[
				{
					"attributes":{
						"POSITION":4,
						"NORMAL":5,
						"TEXCOORD_0":6
					},
					"indices":3,
					"material":1
				}
			]
		},
		{
			"name":"\u30c8\u30fc\u30e9\u30b9.002",
			"primitives":[
				{
					"attributes":{
						"POSITION":7,
						"NORMAL":8,
						"TEXCOORD_0":9
					},
					"indices":3,
					"material":2
				}
			]
		},
		{
			"name":"\u30c8\u30fc\u30e9\u30b9.003",
			"primitives":[
				{
					"attributes":{
						"POSITION":10,
						"NORMAL":11,
						"TEXCOORD_0":12
					},
					"indices":3,
					"material":3
				}
			]
		},
		{
			"name":"\u30c8\u30fc\u30e9\u30b9.004",
			"primitives":[
				{
					"attributes":{
						"POSITION":13,
						"NORMAL":14,
						"TEXCOORD_0":15
					},
					"indices":3,
					"material":4
				}
			]
		},
		{
			"name":"\u30c8\u30fc\u30e9\u30b9.005",
			"primitives":[
				{
					"attributes":{
						"POSITION":16,
						"NORMAL":17,
						"TEXCOORD_0":18
					},
					"indices":3,
					"material":5
				}
			]
		},
		{
			"name":"\u30c8\u30fc\u30e9\u30b9.006",
			"primitives":[
				{
					"attributes":{
						"POSITION":19,
						"NORMAL":20,
						"TEXCOORD_0":21
					},
					"indices":3,
					"material":6
				}
			]
		},
		{
			"name":"\u30c8\u30fc\u30e9\u30b9.007",
			"primitives":[
				{
					"attributes":{
						"POSITION":22,
						"NORMAL":23,
						"TEXCOORD_0":24
					},
					"indices":3,
					"material":7
				}
			]
		}
	],
	"accessors":[
		{
			"bufferView":0,
			"componentType":5126,
			"count":147456,
			"max":[
				1.2353026866912842,
				0.23883549869060516,
				1.2353025674819946
			],
			"min":[
				-1.2353029251098633,
				-0.23883549869060516,
				-1.2353026866912842
			],
			"type":"VEC3"
		},
		{
			"bufferView":1,
			"componentType":5126,
			"count":147456,
			"type":"VEC3"
		},
		{
			"bufferView":2,
			"componentType":5126,
			"count":147456,
			"type":"VEC2"
		},
		{
			"bufferView":3,
			"componentType":5125,
			"count":221184,
			"type":"SCALAR"
		},
		{
			"bufferView":4,
			"componentType":5126,
			"count":147456,
			"max":[
				1.2353026866912842,
				0.23883549869060516,
				1.2353025674819946
			],
			"min":[
				-1.2353029251098633,
				-0.23883549869060516,
				-1.2353026866912842
			],
			"type":"VEC3"
		},
		{
			"bufferView":5,
			"componentType":5126,
			"count":147456,
			"type":"VEC3"
		},
		{
			"bufferView":6,
			"componentType":5126,
			"count":147456,
			"type":"VEC2"
		},
		{
			"bufferView":7,
			"componentType":5126,
			"count":147456,
			"max":[
				1.2353026866912842,
				0.23883549869060516,
				1.2353025674819946
			],
			"min":[
				-1.2353029251098633,
				-0.23883549869060516,
				-1.2353026866912842
			],
			"type":"VEC3"
		},
		{
			"bufferView":8,
			"componentType":5126,
			"count":147456,
			"type":"VEC3"
		},
		{
			"bufferView":9,
			"componentType":5126,
			"count":147456,
			"type":"VEC2"
		},
		{
			"bufferView":10,
			"componentType":5126,
			"count":147456,
			"max":[
				1.2353026866912842,
				0.23883549869060516,
				1.2353025674819946
			],
			"min":[
				-1.2353029251098633,
				-0.23883549869060516,
				-1.2353026866912842
			],
			"type":"VEC3"
		},
		{
			"bufferView":11,
			"componentType":5126,
			"count":147456,
			"type":"VEC3"
		},
		{
			"bufferView":12,
			"componentType":5126,
			"count":147456,
			"type":"VEC2"
		},
		{
			"bufferView":13,
			"componentType":5126,
			"count":147456,
			"max":[
				1.2353026866912842,
				0.23883549869060516,
				1.2353025674819946
			],
			"min":[
				-1.2353029251098633,
				-0.23883549869060516,
				-1.2353026866912842
			],
			"type":"VEC3"
		},
		{
			"bufferView":14,
			"componentType":5126,
			"count":147456,
			"type":"VEC3"
		},
		{
			"bufferView":15,
			"componentType":5126,
			"count":147456,
			"type":"VEC2"
		},
		{
			"bufferView":16,
			"componentType":5126,
			"count":147456,
			"max":[
				1.2353026866912842,
				0.23883549869060516,
				1.2353025674819946
			],
			"min":[
				-1.2353029251098633,
				-0.23883549869060516,
				-1.2353026866912842
			],
			"type":"VEC3"
		},
		{
			"bufferView":17,
			"componentType":5126,
			"count":147456,
			"type":"VEC3"
		},
		{
			"bufferView":18,
			"componentType":5126,
			"count":147456,
			"type":"VEC2"
		},
		{
			"bufferView":19,
			"componentType":5126,
			"count":147456,
			"max":[
				1.2353026866912842,
				0.23883549869060516,
				1.2353025674819946
			],
			"min":[
				-1.2353029251098633,
				-0.23883549869060516,
				-1.2353026866912842
			],
			"type":"VEC3"
		},
		{
			"bufferView":20,
			"componentType":5126,
			"count":147456,
			"type":"VEC3"
		},
		{
			"bufferView":21,
			"componentType":5126,
			"count":147456,
			"type":"VEC2"
		},
		{
			"bufferView":22,
			"componentType":5126,
			"count":147456,
			"max":[
				1.2353026866912842,
				0.23883549869060516,
				1.2353025674819946
			],
			"min":[
				-1.2353029251098633,
				-0.23883549869060516,
				-1.2353026866912842
			],
			"type":"VEC3"
		},
		{
			"bufferView":23,
			"componentType":5126,
			"count":147456,
			"type":"VEC3"
		},
		{
			"bufferView":24,
			"componentType":5126,
			"count":147456,
			"type":"VEC2"
		}
	],
	"bufferViews":[
		{
			"buffer":0,
			"byteLength":1769472,
			"byteOffset":0,
			"target":34962
		},
		{
			"buffer":0,
			"byteLength":1769472,
			"byteOffset":1769472,
			"target":34962
		},
		{
			"buffer":0,
			"byteLength":1179648,
			"byteOffset":3538944,
			"target":34962
		},
		{
			"buffer":0,
			"byteLength":884736,
			"byteOffset":4718592,
			"target":34963
		},
		{
			"buffer":0,
			"byteLength":1769472,
			"byteOffset":5603328,
			"target":34962
		},
		{
			"buffer":0,
			"byteLength":1769472,
			"byteOffset":7372800,
			"target":34962
		},
		{
			"buffer":0,
			"byteLength":1179648,
			"byteOffset":9142272,
			"target":34962
		},
		{
			"buffer":0,
			"byteLength":1769472,
			"byteOffset":10321920,
			"target":34962
		},
		{
			"buffer":0,
			"byteLength":1769472,
			"byteOffset":12091392,
			"target":34962
		},
		{
			"buffer":0,
			"byteLength":1179648,
			"byteOffset":13860864,
			"target":34962
		},
		{
			"buffer":0,
			"byteLength":1769472,
			"byteOffset":15040512,
			"target":34962
		},
		{
			"buffer":0,
			"byteLength":1769472,
			"byteOffset":16809984,
			"target":34962
		},
		{
			"buffer":0,
			"byteLength":1179648,
			"byteOffset":18579456,
			"target":34962
		},
		{
			"buffer":0,
			"byteLength":1769472,
			"byteOffset":19759104,
			"target":34962
		},
		{
			"buffer":0,
			"byteLength":1769472,
			"byteOffset":21528576,
			"target":34962
		},
		{
			"buffer":0,
			"byteLength":1179648,
			"byteOffset":23298048,
			"target":34962
		},
		{
			"buffer":0,
			"byteLength":1769472,
			"byteOffset":24477696,
			"target":34962
		},
		{
			"buffer":0,
			"byteLength":1769472,
			"byteOffset":26247168,
			"target":34962
		},
		{
			"buffer":0,
			"byteLength":1179648,
			"byteOffset":28016640,
			"target":34962
		},
		{
			"buffer":0,
			"byteLength":1769472,
			"byteOffset":29196288,
			"target":34962
		},
		{
			"buffer":0,
			"byteLength":1769472,
			"byteOffset":30965760,
			"target":34962
		},
		{
			"buffer":0,
			"byteLength":1179648,
			"byteOffset":32735232,
			"target":34962
		},
		{
			"buffer":0,
			"byteLength":1769472,
			"byteOffset":33914880,
			"target":34962
		},
		{
			"buffer":0,
			"byteLength":1769472,
			"byteOffset":35684352,
			"target":34962
		},
		{
			"buffer":0,
			"byteLength":1179648,
			"byteOffset":37453824,
			"target":34962
		}
	],
	"buffers":[
		{
			"byteLength":38633472,
			"uri":"Wall.bin"
		}
	]
}
